<svg xmlns="http://www.w3.org/2000/svg" xmlns:xlink="http://www.w3.org/1999/xlink" version="1.1" width="256" height="256" viewBox="0 0 256 256" xml:space="preserve">

<defs>
</defs>
<g style="stroke: none; stroke-width: 0; stroke-dasharray: none; stroke-linecap: butt; stroke-linejoin: miter; stroke-miterlimit: 10; fill: none; fill-rule: nonzero; opacity: 1;" transform="translate(1.4065934065934016 1.4065934065934016) scale(2.81 2.81)" >
	<path d="M 70.774 90 H 19.226 c -3.586 0 -6.494 -2.907 -6.494 -6.494 V 41.755 c 0 -3.586 2.907 -6.494 6.494 -6.494 h 51.549 c 3.586 0 6.494 2.907 6.494 6.494 v 41.751 C 77.268 87.093 74.361 90 70.774 90 z" style="stroke: none; stroke-width: 1; stroke-dasharray: none; stroke-linecap: butt; stroke-linejoin: miter; stroke-miterlimit: 10; fill: rgb(255,189,72); fill-rule: nonzero; opacity: 1;" transform=" matrix(1 0 0 1 0 0) " stroke-linecap="round" />
	<path d="M 51.483 57.308 c 0 -4.038 -3.691 -7.213 -7.883 -6.337 c -2.439 0.51 -4.414 2.477 -4.932 4.915 c -0.604 2.842 0.656 5.45 2.784 6.845 v 9.575 c 0 1.959 1.588 3.548 3.548 3.548 h 0 c 1.959 0 3.548 -1.588 3.548 -3.548 v -9.575 C 50.314 61.573 51.483 59.578 51.483 57.308 z" style="stroke: none; stroke-width: 1; stroke-dasharray: none; stroke-linecap: butt; stroke-linejoin: miter; stroke-miterlimit: 10; fill: rgb(102,102,102); fill-rule: nonzero; opacity: 1;" transform=" matrix(1 0 0 1 0 0) " stroke-linecap="round" />
	<path d="M 66.961 35.262 V 20.155 C 66.961 9.024 57.937 0 46.806 0 h -3.612 C 32.063 0 23.039 9.024 23.039 20.155 v 15.107 l 7.993 0 V 22.92 c 0 -8.244 6.683 -14.927 14.927 -14.927 l 0 0 c 7.185 0 13.009 5.824 13.009 13.009 v 14.26 L 66.961 35.262 z" style="stroke: none; stroke-width: 1; stroke-dasharray: none; stroke-linecap: butt; stroke-linejoin: miter; stroke-miterlimit: 10; fill: rgb(102,102,102); fill-rule: nonzero; opacity: 1;" transform=" matrix(1 0 0 1 0 0) " stroke-linecap="round" />
</g>
</svg>