<?xml version="1.0" encoding="utf-8"?>
<!-- Generator: Adobe Illustrator 24.1.0, SVG Export Plug-In . SVG Version: 6.00 Build 0)  -->
<svg version="1.1" id="logo" xmlns="http://www.w3.org/2000/svg" xmlns:xlink="http://www.w3.org/1999/xlink" x="0px" y="0px"
	 viewBox="0 0 391.6 431.1" style="enable-background:new 0 0 391.6 431.1;" xml:space="preserve">
<style type="text/css">
	.st0{fill:#F15A2B;}
	.st1{fill:#FFFFFF;}
</style>
<path class="st0" d="M391.6,292.8c0,19.7-14,43.9-31,53.7l-133.8,77.2c-17.1,9.9-45,9.9-62,0L31,346.5c-17.1-9.9-31-34-31-53.7
	V138.3c0-19.7,13.9-43.9,31-53.7L164.8,7.4c17.1-9.9,45-9.9,62,0l133.7,77.2c17.1,9.8,31,34,31,53.7L391.6,292.8L391.6,292.8z"/>
<path class="st1" d="M157.8,179.8H335V130H158.2c-25.3,0-46.3,8.7-62.3,25.7c-38.6,41.1-39.6,144.6-39.6,144.6h277.4v-93.6h-49.8
	v43.8H109.5c1.1-16.3,8.6-45.5,22.8-60.6C138.7,183,146.8,179.8,157.8,179.8L157.8,179.8z"/>
</svg>
