<?xml version="1.0" encoding="UTF-8"?>
<svg width="489px" height="489px" viewBox="0 0 489 489" version="1.1" xmlns="http://www.w3.org/2000/svg" xmlns:xlink="http://www.w3.org/1999/xlink">
    <title>icon-edit</title>
    <g id="Page-1" stroke="none" stroke-width="1" fill="none" fill-rule="evenodd">
        <g id="icon-edit" transform="translate(0.697000, 0.000236)" fill="#FFFFFF" fill-rule="nonzero">
            <path d="M486.45,462.519764 L450.05,294.919764 C450.05,290.719764 447.95,287.619764 444.85,284.519764 L183.55,23.2197636 C163.55,0.319763574 109.25,-14.8802364 71.15,23.2197636 L23.25,71.1197636 C-7.75,102.119764 -7.75,152.519764 23.25,183.519764 L284.55,444.819764 C286.65,446.919764 289.75,449.019764 293.95,450.019764 L462.55,488.519764 C472.65,490.019764 491.65,483.619764 486.45,462.519764 Z M52.35,154.419764 C36.75,138.819764 36.75,114.819764 52.35,99.2197636 L100.25,51.3197636 C115.45,36.1197636 140.25,36.1197636 155.45,51.3197636 L393.85,289.719764 L366.75,289.719764 C355.35,289.719764 345.95,299.119764 345.95,310.519764 L345.95,344.819764 L311.65,344.819764 C300.25,344.819764 290.85,354.219764 290.85,365.619764 L290.85,391.719764 L52.35,154.419764 Z M332.35,415.719764 L332.35,386.519764 L366.65,386.519764 C384.65,388.219764 387.45,370.019764 387.45,365.719764 L387.45,331.319764 L416.65,331.319764 L440.65,440.619764 L332.35,415.719764 Z" id="Shape"></path>
        </g>
    </g>
</svg>