<?xml version="1.0" encoding="iso-8859-1"?>
<!-- Generator: Adobe Illustrator 16.0.0, SVG Export Plug-In . SVG Version: 6.00 Build 0)  -->
<!DOCTYPE svg PUBLIC "-//W3C//DTD SVG 1.1//EN" "http://www.w3.org/Graphics/SVG/1.1/DTD/svg11.dtd">
<svg version="1.1" id="Capa_1" xmlns="http://www.w3.org/2000/svg" xmlns:xlink="http://www.w3.org/1999/xlink" x="0px" y="0px"
	 width="444.792px" height="444.792px" viewBox="0 0 444.792 444.792" style="enable-background:new 0 0 444.792 444.792;"
	 xml:space="preserve">
<g>
	<g>
		<g>
			<path d="M269.383,386.938c-18.445,0-36.202-4.397-52.08-12.682H107.22c-10.099,0-18.315-8.219-18.315-18.315v-56.576
				c0-10.099,8.217-18.314,18.315-18.314h49.748c-0.13-2.231-0.204-4.479-0.204-6.731c0-8.453,0.922-16.763,2.719-24.813H56.516
				v-30.832h101.802c8.71,0,15.772-7.061,15.772-15.771s-7.063-15.771-15.772-15.771H56.516v-30.832h50.704h185.134
				c8.184,0,15.131,5.398,17.471,12.818c11.723,4.491,22.652,10.962,32.389,19.231v-13.735c0-6.465-1.25-12.641-3.5-18.314h40.303
				c8.709,0,15.771-7.063,15.771-15.773s-7.062-15.771-15.771-15.771h-4.411v-93.21h4.411c8.709,0,15.771-7.063,15.771-15.773
				S387.726,0,379.017,0H107.22C79.728,0,57.362,22.367,57.362,49.859v56.576c0,6.467,1.25,12.643,3.5,18.316H20.56
				c-8.71,0-15.772,7.061-15.772,15.771s7.063,15.773,15.772,15.773h4.412v93.207H20.56c-8.71,0-15.772,7.062-15.772,15.771
				c0,8.709,7.063,15.771,15.772,15.771h40.302c-2.25,5.675-3.5,11.852-3.5,18.313v56.575c0,27.494,22.366,49.861,49.858,49.861
				H332.7l-25.398-25.4C295.136,384.74,282.411,386.938,269.383,386.938z M88.905,49.859c0-10.098,8.217-18.314,18.315-18.314
				H343.06v30.83H241.256c-8.709,0-15.771,7.063-15.771,15.773s7.062,15.771,15.771,15.771H343.06v30.832H107.22
				c-10.099,0-18.315-8.217-18.315-18.316V49.859z"/>
			<path d="M432.407,400.461l-79.035-79.034c21.303-37.448,16.01-86.032-15.896-117.937c-38.263-38.262-100.517-38.262-138.775,0
				c-38.261,38.26-38.262,100.518,0,138.775c31.904,31.906,80.488,37.199,117.938,15.896l79.035,79.033
				c10.129,10.129,26.607,10.129,36.734,0C442.536,427.07,442.536,410.592,432.407,400.461z M317.931,322.721
				c-27.481,27.483-72.202,27.483-99.688,0c-27.481-27.481-27.481-72.201,0-99.686c27.484-27.482,72.203-27.482,99.688,0
				C345.413,250.52,345.413,295.238,317.931,322.721z"/>
		</g>
	</g>
</g>
<g>
</g>
<g>
</g>
<g>
</g>
<g>
</g>
<g>
</g>
<g>
</g>
<g>
</g>
<g>
</g>
<g>
</g>
<g>
</g>
<g>
</g>
<g>
</g>
<g>
</g>
<g>
</g>
<g>
</g>
</svg>
