<svg xmlns="http://www.w3.org/2000/svg"  viewBox="0 0 48 48" width="48px" height="48px" baseProfile="basic"><path fill="#8fcae6" d="M44.5,20h-2.964c-0.457-2.003-1.25-3.876-2.315-5.564l2.103-2.103c0.975-0.975,0.975-2.562,0-3.536	l-2.121-2.121c-0.976-0.976-2.562-0.974-3.536,0l-2.103,2.103C31.876,7.714,30.003,6.921,28,6.464V3.5C28,2.121,26.879,1,25.5,1h-3	C21.121,1,20,2.121,20,3.5v2.964c-2.003,0.457-3.876,1.25-5.564,2.315l-2.103-2.103c-0.976-0.976-2.562-0.974-3.536,0L6.676,8.797	c-0.975,0.975-0.975,2.562,0,3.536l2.103,2.103C7.714,16.124,6.921,17.997,6.464,20H3.5C2.121,20,1,21.121,1,22.5v3	C1,26.879,2.121,28,3.5,28h2.964c0.457,2.003,1.25,3.876,2.315,5.564l-2.103,2.103c-0.975,0.975-0.975,2.562,0,3.536l2.121,2.121	c0.487,0.487,1.128,0.731,1.768,0.731c0.641,0,1.281-0.244,1.769-0.731l2.103-2.103c1.689,1.065,3.561,1.858,5.564,2.315V44.5	c0,1.379,1.121,2.5,2.5,2.5h3c1.379,0,2.5-1.121,2.5-2.5v-2.964c2.003-0.457,3.876-1.25,5.564-2.315l2.103,2.103	c0.487,0.487,1.128,0.731,1.768,0.731c0.641,0,1.281-0.244,1.769-0.731l2.121-2.121c0.975-0.975,0.975-2.562,0-3.536l-2.103-2.103	c1.065-1.689,1.858-3.561,2.315-5.564H44.5c1.379,0,2.5-1.121,2.5-2.5v-3C47,21.121,45.879,20,44.5,20z"/><path fill="#324561" d="M24,34c-5.514,0-10-4.486-10-10s4.486-10,10-10s10,4.486,10,10S29.514,34,24,34z M24,16	c-4.411,0-8,3.589-8,8s3.589,8,8,8s8-3.589,8-8S28.411,16,24,16z"/></svg>