<?xml version="1.0" encoding="UTF-8"?>
<svg width="73px" height="73px" viewBox="0 0 73 73" version="1.1" xmlns="http://www.w3.org/2000/svg" xmlns:xlink="http://www.w3.org/1999/xlink">
    <title>ipstack_logo</title>
    <g id="Page-1" stroke="none" stroke-width="1" fill="none" fill-rule="evenodd">
        <g id="ipstack_logo" transform="translate(0.400000, 0.400000)" fill-rule="nonzero">
            <g id="Group">
                <g fill="#E97C2A" id="Path">
                    <path d="M22.3,2.8 L22.3,2.8 C22.3,2.8 22.4,2.8 22.4,2.8 C22.4,2.8 22.3,2.8 22.3,2.8 Z"></path>
                    <path d="M15.9,17.1 C15.9,14.1 18.2,11.6 21.1,11.2 L22.3,2.8 C13.3,6.5 6.2,13.7 2.5,22.7 L15.9,17.7 C15.9,17.5 15.9,17.3 15.9,17.1 Z"></path>
                    <path d="M24.4,41.4 L0.1,40.1 C1,48 4.4,55.1 9.5,60.6 C10.4,58.5 12.5,57 15,57 C15.6,57 16.2,57.1 16.8,57.3 L25.6,43.3 C25.1,42.7 24.7,42.1 24.4,41.4 Z"></path>
                    <path d="M26.3,34.4 L22.2,23.1 C22.1,23.1 22.1,23.1 22,23.1 C20.3,23.1 18.8,22.4 17.7,21.3 L1,27.5 C0.3,30.2 0,33.1 0,36 L24.3,37.3 C24.6,36.2 25.3,35.2 26.3,34.4 Z"></path>
                    <path d="M29.9,45.1 C29.6,45.1 29.4,45.1 29.1,45 L19.9,59.7 C20.5,60.7 20.9,61.8 20.9,63 C20.9,64.9 20,66.5 18.7,67.6 C24,70.5 29.9,72 35.9,72 C36.7,72 37.5,72 38.3,71.9 L29.9,45.1 Z"></path>
                    <path d="M47.9,7.1 C47.9,5.4 48.6,3.9 49.7,2.8 C45.5,1 40.8,0 35.9,0 C32.6,0 29.5,0.4 26.5,1.3 L25,11.9 C25.8,12.4 26.5,13 26.9,13.8 L47.9,7.2 C47.9,7.3 47.9,7.2 47.9,7.1 Z"></path>
                    <path d="M63.9,44.1 C63.9,47.1 61.7,49.6 58.8,50 L54.4,66.9 C64.2,61 71,50.5 71.8,38.4 L63.9,43.3 C63.9,43.6 63.9,43.8 63.9,44.1 Z"></path>
                    <path d="M59.6,9 C59.1,10.4 58.1,11.6 56.8,12.4 L59.6,38.3 C60.6,38.6 61.4,39.1 62.1,39.7 L71.8,33.7 C71.2,23.9 66.6,15.1 59.6,9 Z"></path>
                    <path d="M55.6,38.5 L52.8,12.9 C51.5,12.6 50.3,12 49.4,11 L27.8,17.8 C27.6,19.3 26.9,20.6 25.8,21.6 L30,33.1 C33,33.2 35.5,35.5 35.9,38.4 L52.5,41.4 C53.2,40.1 54.3,39.1 55.6,38.5 Z"></path>
                    <path d="M52.1,45.4 L35,42.3 C34.6,42.8 34.2,43.3 33.7,43.7 L42.4,71.4 C44.9,70.9 47.4,70.2 49.7,69.3 L54.9,49.2 C53.5,48.4 52.5,47 52.1,45.4 Z"></path>
                </g>
                <path d="M14.9,60.1 C16.6,60.1 17.9,61.4 17.9,63.1 C17.9,64.4 17,65.6 15.8,66 C14.4,65.1 13.2,64.1 11.9,63 C12,61.3 13.3,60.1 14.9,60.1 Z M29.9,42.1 C28.2,42.1 26.9,40.8 26.9,39.1 C26.9,37.4 28.2,36.1 29.9,36.1 C31.6,36.1 32.9,37.4 32.9,39.1 C32.9,40.8 31.6,42.1 29.9,42.1 Z M24.9,17.1 C24.9,18.8 23.6,20.1 21.9,20.1 C20.2,20.1 18.9,18.8 18.9,17.1 C18.9,15.4 20.2,14.1 21.9,14.1 C23.6,14.1 24.9,15.4 24.9,17.1 Z M57.9,47.1 C56.2,47.1 54.9,45.8 54.9,44.1 C54.9,42.4 56.2,41.1 57.9,41.1 C59.6,41.1 60.9,42.4 60.9,44.1 C60.9,45.8 59.6,47.1 57.9,47.1 L57.9,47.1 Z M56.9,7.1 C56.9,8.8 55.6,10.1 53.9,10.1 C52.2,10.1 50.9,8.8 50.9,7.1 C50.9,5.8 51.7,4.7 52.8,4.3 C54.2,5.1 55.6,5.9 56.9,6.8 C56.9,6.9 56.9,7 56.9,7.1 Z" id="Shape" fill="#FFFFFF"></path>
            </g>
        </g>
    </g>
</svg>