<?xml version="1.0" encoding="UTF-8"?>
<svg width="24px" height="30px" viewBox="0 0 24 30" version="1.1" xmlns="http://www.w3.org/2000/svg" xmlns:xlink="http://www.w3.org/1999/xlink">
    <title>Path</title>
    <g id="Page-1" stroke="none" stroke-width="1" fill="none" fill-rule="evenodd">
        <g id="logo" transform="translate(0.000000, 0.000977)" fill="#0095E5">
            <path d="M13.2061,22.6077235 L15.1581,24.8807235 L17.4131,22.9147235 L19.6221,20.9887235 C21.9976,18.9002235 23.4548,15.9599235 23.6781,12.8047235 C23.9057,9.64720345 22.882,6.52684345 20.8281,4.11777345 C19.8094,2.93635345 18.5678,1.96731345 17.1744,1.26603345 C15.7809,0.564756452 14.2629,0.145003452 12.7071,0.0307712515 C11.1521,-0.0815362485 9.59012996,0.114261452 8.11090996,0.606934452 C6.63168996,1.09960345 5.26427996,1.87946345 4.08711996,2.90177345 C1.71146996,4.99064345 0.254275959,7.93125345 0.0311230588,11.0867235 C-0.196099041,14.2440235 0.827587959,17.3639235 2.88111996,19.7727235 L10.6701,28.8427235 C11.3661,29.6527235 12.0981,30.5307235 13.2291,29.5947235 L13.2631,29.5657235 L13.2951,29.5367235 C14.3771,28.5417235 13.6201,27.6857235 12.9241,26.8747235 L12.4381,26.3097235 L5.13611996,17.8027235 C3.60076996,15.9983235 2.83581996,13.6629235 3.00611996,11.2997235 C3.17376996,8.93808345 4.26396996,6.73719345 6.04111996,5.17277345 C6.92283996,4.40840345 7.94663996,3.82541345 9.05391996,3.45717345 C10.1612,3.08894345 11.3302,2.94268345 12.4941,3.02677345 C14.846,3.19983345 17.033,4.29976345 18.5741,6.08477345 C20.1095,7.88921345 20.8744,10.2246235 20.7041,12.5877235 C20.5367,14.9493235 19.4469,17.1502235 17.6701,18.7147235 L15.4621,20.6407235 L13.5101,18.3677235 L11.5581,16.0947235 L9.64811996,13.8697235 C9.14905996,13.2749235 8.90099996,12.5091235 8.95642996,11.7346235 C9.01185996,10.9601235 9.36642996,10.2375235 9.94511996,9.71977345 C10.5329,9.21767345 11.295,8.96749345 12.066,9.02346345 C12.8371,9.07943345 13.555,9.43704345 14.0641,10.0187235 C14.4992,10.5372235 14.7459,11.1877235 14.7641,11.8643235 C14.7823,12.5409235 14.5708,13.2037235 14.1641,13.7447235 C13.9701,14.0270235 13.8743,14.3654235 13.8917,14.7075235 C13.909,15.0496235 14.0385,15.3765235 14.2601,15.6377235 C15.2401,16.7787235 16.3211,15.9937235 16.8971,15.0277235 C17.5386,13.9495235 17.8276,12.6979235 17.7238,11.4476235 C17.62,10.1972235 17.1286,9.01049345 16.3181,8.05277345 C15.2939,6.86873345 13.8415,6.13979345 12.2801,6.02616345 C10.7186,5.91253345 9.17597996,6.42350345 7.99111996,7.44677345 C6.81345996,8.48874345 6.09098996,9.95070345 5.97862996,11.5191235 C5.86627996,13.0875235 6.37299996,14.6376235 7.39011996,15.8367235 L9.30111996,18.0627235 L11.2541,20.3327235 L13.2061,22.6057235 L13.2061,22.6077235 L13.2061,22.6077235 Z" id="Path"></path>
        </g>
    </g>
</svg>