<?xml version="1.0" encoding="UTF-8"?>
<svg width="12px" height="12px" viewBox="0 0 12 12" version="1.1" xmlns="http://www.w3.org/2000/svg" xmlns:xlink="http://www.w3.org/1999/xlink">
    <title>status-success-svgrepo-com</title>
    <g id="Page-1" stroke="none" stroke-width="1" fill="none" fill-rule="evenodd">
        <g id="status-success-svgrepo-com" fill="#69B86B">
            <path d="M6,12 C9.3137085,12 12,9.3137085 12,6 C12,2.6862915 9.3137085,0 6,0 C2.6862915,0 0,2.6862915 0,6 C0,9.3137085 2.6862915,12 6,12 Z M8.576,4.98 C8.82910082,4.66101338 8.7814353,4.19834562 8.46861498,3.93766202 C8.15579466,3.67697843 7.6921162,3.71352619 7.424,4.02 L5.45,6.389 L4.53,5.469 C4.23558233,5.18490644 3.76780228,5.18919039 3.47863704,5.47862843 C3.1894718,5.76806646 3.18562895,6.23585035 3.47,6.53 L4.97,8.03 C5.11896124,8.17885832 5.32364277,8.25823207 5.53401815,8.24872143 C5.74439352,8.23921079 5.94107811,8.1416921 6.076,7.98 L8.576,4.98 Z" id="Shape"></path>
        </g>
    </g>
</svg>