<?xml version="1.0" encoding="UTF-8"?>
<svg width="73px" height="41px" viewBox="0 0 73 41" version="1.1" xmlns="http://www.w3.org/2000/svg" xmlns:xlink="http://www.w3.org/1999/xlink">
    <title>memberpress-logo-color</title>
    <g id="Page-1" stroke="none" stroke-width="1" fill="none" fill-rule="evenodd">
        <g id="memberpress-logo-color" transform="translate(0.700000, 0.000000)" fill-rule="nonzero">
            <g id="Group">
                <g id="Path">
                    <path d="M47.3,17.5 C47.3,13.4 50.6,10.1 54.7,10.1 C58.8,10.1 62.1,13.4 62.1,17.5 L62.1,35 C62.1,37.8 64.4,40 67.1,40 C69.9,40 72.1,37.7 72.1,35 L72.1,17.5 C72.2,7.8 64.4,0 54.7,0 C49.9,0 45.5,2 42.3,5.2 C45.4,8.4 47.3,12.7 47.3,17.5 L47.3,17.5 Z" fill="#20D1CC"></path>
                    <path d="M37.3,17.5 C37.3,12.7 39.2,8.4 42.3,5.2 C39.1,2 34.7,0 29.9,0 C25,0 20.6,2 17.5,5.2 C20.6,8.3 22.5,12.7 22.5,17.4 C22.5,13.3 25.8,10 29.9,10 C34,10.1 37.3,13.4 37.3,17.5 L37.3,17.5 Z" fill="#05D0E0"></path>
                    <path d="M47.3,35 L47.3,17.5 C47.3,12.7 45.4,8.4 42.3,5.2 C39.2,8.4 37.3,12.7 37.3,17.5 L37.3,35 C37.3,36.4 37.9,37.6 38.8,38.6 C39.7,39.5 41,40.1 42.4,40.1 C45.1,40 47.3,37.7 47.3,35 Z" fill="#01A9B2"></path>
                    <path d="M5,0 C2.2,0 -2.66453526e-15,2.3 -2.66453526e-15,5 C-2.66453526e-15,7.8 2.3,10 5,10 C9.1,10 12.4,13.3 12.4,17.4 C12.4,12.6 14.3,8.3 17.4,5.2 C14.3,2 9.9,0 5,0 Z" fill="#0282C9"></path>
                    <path d="M12.4,17.4 C12.4,17.4 12.4,17.4 12.4,17.4 L12.4,34.9 C12.4,37.7 14.7,39.9 17.4,39.9 C18.3,39.9 19.1,39.7 19.8,39.3 C21.4,38.4 22.4,36.8 22.4,34.9 L22.4,17.5 C22.4,17.5 22.4,17.5 22.4,17.5 C22.4,12.7 20.5,8.4 17.4,5.3 C14.3,8.4 12.4,12.7 12.4,17.4 Z" fill="#016BB1"></path>
                </g>
                <circle id="Oval" fill="#06429E" cx="5" cy="5" r="5"></circle>
                <circle id="Oval" fill="#01569A" cx="17.4" cy="35" r="5"></circle>
                <circle id="Oval" fill="#008C9D" cx="42.3" cy="35" r="5"></circle>
                <circle id="Oval" fill="#03ABA3" cx="67.2" cy="35" r="5"></circle>
            </g>
        </g>
    </g>
</svg>