<?xml version="1.0" encoding="UTF-8"?>
<svg width="201px" height="156px" viewBox="0 0 201 156" version="1.1" xmlns="http://www.w3.org/2000/svg" xmlns:xlink="http://www.w3.org/1999/xlink">
    <title>WPForms-Logo</title>
    <g id="Page-1" stroke="none" stroke-width="1" fill="none" fill-rule="evenodd">
        <g id="WPForms-Logo" transform="translate(0.179579, 0.000000)" fill-rule="nonzero">
            <path d="M22.620421,96.2 C33.720421,97.7 43.420421,95.2 51.320421,88.1 L64.520421,88.8 L57.320421,110 C49.320421,122.7 37.720421,125.4 25.820421,124.6 L22.620421,96.2 L22.620421,96.2 L22.620421,96.2 Z" id="Path" fill="#7EAABA"></path>
            <path d="M27.520421,101 L29.720421,120.4 C39.620421,120.3 47.520421,117.1 53.420421,108.1 L58.620421,92.9 L52.820421,92.6 C45.420421,98.7 36.820421,101.3 27.520421,101 L27.520421,101 L27.520421,101 Z" id="Path" fill="#D3E8EF"></path>
            <path d="M27.520421,101 L28.820421,112.5 C42.420421,110.9 53.020421,105.3 58.520421,92.9 L52.720421,92.6 C45.320421,98.7 36.820421,101.3 27.520421,101" id="Path" fill="#FFFFFF"></path>
            <path d="M25.820421,79.6 C38.220421,79.6 48.320421,89.7 48.320421,102.1 C48.320421,114.5 38.220421,124.6 25.820421,124.6 C13.420421,124.6 3.32042102,114.6 3.32042102,102.1 C3.32042102,89.7 13.420421,79.6 25.820421,79.6" id="Path" fill="#7EAABA"></path>
            <path d="M25.820421,84 C15.820421,84 7.82042102,92.1 7.82042102,102 C7.82042102,112 15.920421,120 25.820421,120 C35.820421,120 43.820421,111.9 43.820421,102 C43.820421,92 35.720421,84 25.820421,84" id="Path" fill="#D3E8EF"></path>
            <path d="M25.820421,84 C19.720421,84 14.220421,87 11.020421,91.7 C11.620421,101.1 19.520421,108.6 29.020421,108.6 C35.120421,108.6 40.620421,105.6 43.820421,100.9 C43.220421,91.5 35.420421,84 25.820421,84" id="Path" fill="#FFFFFF"></path>
            <path d="M23.520421,82.9 C32.820421,82.9 40.320421,90.4 40.320421,99.7 C40.320421,109 32.820421,116.5 23.520421,116.5 C14.220421,116.5 6.72042102,108.9 6.72042102,99.6 C6.72042102,90.4 14.220421,82.9 23.520421,82.9" id="Path" fill="#7EAABA"></path>
            <path d="M22.320421,78.4 C31.620421,78.4 39.220421,86 39.220421,95.2 C39.220421,104.5 31.620421,112.1 22.320421,112.1 C13.020421,112.1 5.42042102,104.5 5.42042102,95.2 C5.42042102,85.9 13.020421,78.4 22.320421,78.4" id="Path" fill="#7F3E13"></path>
            <path d="M23.920421,84.8 C16.520421,84.8 10.520421,90.8 10.520421,98.2 C10.520421,105.6 16.520421,111.6 23.920421,111.6 C31.320421,111.6 37.320421,105.6 37.320421,98.2 C37.320421,90.8 31.320421,84.8 23.920421,84.8" id="Path" fill="#B85A1B"></path>
            <path d="M13.820421,64.8 C14.120421,55.4 28.120421,54.8 28.520421,64.8 C32.620421,57.9 45.520421,61.7 41.520421,72.5 C41.720421,73.4 41.920421,74.2 42.020421,75.1 C49.020421,75.5 51.320421,86.4 41.720421,89.8 C40.920421,92.8 39.620421,95.4 37.920421,97.5 C29.720421,104.6 27.020421,98.8 22.620421,94 C18.320421,94.1 6.62042102,91.1 9.92042102,102.1 C2.42042102,97.3 -2.37957898,87.6 1.22042102,73.4 C-3.77957898,61.9 9.52042102,57.6 13.820421,64.8 L13.820421,64.8 L13.820421,64.8 Z" id="Path" fill="#7F3E13"></path>
            <path d="M5.72042102,75 C4.02042102,81.9 3.92042102,89.7 8.82042102,95.3 C15.720421,103.2 29.720421,102.8 35.120421,92.9 C38.020421,87.5 37.820421,80.8 36.620421,74.9 C26.320421,72.7 15.920421,73.1 5.72042102,75 L5.72042102,75 L5.72042102,75 Z" id="Path" fill="#B85A1B"></path>
            <path d="M5.72042102,75 C4.02042102,81.9 3.92042102,89.7 8.82042102,95.3 C12.020421,98.9 16.520421,100.7 21.220421,100.8 L21.220421,73.4 C16.020421,73.4 10.920421,74 5.72042102,75" id="Path" fill="#E1762F"></path>
            <path d="M12.520421,80.3 C11.520421,84.1 11.520421,88.5 14.320421,91.6 C18.120421,96 25.920421,95.8 28.920421,90.2 C30.520421,87.2 30.420421,83.5 29.720421,80.2 C24.020421,79 18.220421,79.2 12.520421,80.3" id="Path" fill="#7F3E13"></path>
            <path d="M21.120421,69.7 C23.220421,69.7 25.020421,67.9 25.020421,65.8 C25.020421,63.7 23.220421,61.9 21.120421,61.9 L21.120421,69.7 L21.120421,69.7 L21.120421,69.7 Z M35.220421,64.8 C37.320421,64.8 39.120421,66.6 39.120421,68.7 C39.120421,70.8 37.320421,72.6 35.220421,72.6 C33.120421,72.6 31.320421,70.8 31.320421,68.7 C31.320421,66.5 33.120421,64.8 35.220421,64.8" id="Shape" fill="#B85A1B"></path>
            <path d="M7.82042102,65.2 C9.92042102,65.2 11.720421,67 11.720421,69.1 C11.720421,71.2 9.92042102,73 7.82042102,73 C5.72042102,73 3.92042102,71.2 3.92042102,69.1 C3.92042102,67 5.62042102,65.2 7.82042102,65.2 M21.120421,69.7 L21.120421,62 C19.020421,62 17.220421,63.8 17.220421,65.9 C17.220421,68 19.020421,69.8 21.120421,69.7 L21.120421,69.7 L21.120421,69.7 Z" id="Shape" fill="#E1762F"></path>
            <path d="M39.620421,78.9 C41.720421,78.9 43.520421,80.7 43.520421,82.8 C43.520421,84.9 41.720421,86.7 39.620421,86.7 C37.520421,86.7 35.720421,84.9 35.720421,82.8 C35.720421,80.6 37.420421,78.9 39.620421,78.9" id="Path" fill="#B85A1B"></path>
            <path d="M173.420421,124.9 C172.520421,113.2 167.220421,104.8 156.820421,100.3 L158.920421,92.2 L175.720421,87.7 C190.320421,92.1 196.120421,101.5 198.920421,113.2 L173.420421,124.9 L173.420421,124.9 L173.420421,124.9 Z" id="Path" fill="#7EAABA"></path>
            <path d="M176.920421,118.5 L193.620421,110.7 C190.720421,100.9 185.820421,94.6 175.520421,92.1 L162.420421,95.6 L161.820421,97.8 C169.920421,102.5 174.820421,109.6 176.920421,118.5 L176.920421,118.5 L176.920421,118.5 Z" id="Path" fill="#FFFFFF"></path>
            <path d="M157.220421,126.9 C153.420421,115.4 159.620421,103.1 171.120421,99.3 C182.620421,95.5 194.920421,101.7 198.720421,113.2 C202.520421,124.7 196.320421,137 184.820421,140.8 C173.320421,144.6 161.020421,138.4 157.220421,126.9" id="Path" fill="#7EAABA"></path>
            <path d="M160.820421,125.7 C163.920421,135.2 174.120421,140.3 183.620421,137.2 C193.120421,134.1 198.220421,123.9 195.120421,114.4 C192.020421,104.9 181.820421,99.8 172.320421,102.9 C162.820421,106 157.720421,116.2 160.820421,125.7" id="Path" fill="#D3E8EF"></path>
            <path d="M195.820421,117.6 C195.720421,116.5 195.420421,115.5 195.120421,114.4 C192.020421,104.9 181.820421,99.8 172.320421,102.9 C169.420421,103.9 166.920421,105.5 164.920421,107.5 C165.020421,108.6 165.320421,109.6 165.620421,110.7 C168.820421,120.2 178.920421,125.3 188.420421,122.2 C191.420421,121.3 193.920421,119.6 195.820421,117.6" id="Path" fill="#FFFFFF"></path>
            <path d="M153.120421,132.5 C149.520421,121.7 155.420421,110 166.220421,106.5 C177.020421,102.9 188.720421,108.8 192.220421,119.6 C195.820421,130.4 189.920421,142.1 179.120421,145.6 C168.320421,149.2 156.620421,143.3 153.120421,132.5" id="Path" fill="#7F3E13"></path>
            <path d="M157.320421,131.2 C154.520421,122.7 159.120421,113.5 167.620421,110.7 C176.120421,107.9 185.320421,112.5 188.120421,121 C190.920421,129.5 186.320421,138.7 177.820421,141.5 C169.220421,144.3 160.120421,139.7 157.320421,131.2" id="Path" fill="#B85A1B"></path>
            <path d="M156.620421,123.5 C157.620421,117.7 161.620421,112.6 167.620421,110.6 C176.120421,107.8 185.320421,112.4 188.120421,120.9 C188.520421,122.2 188.820421,123.6 188.920421,124.9 C178.420421,131.6 164.720421,130.2 156.620421,123.5 L156.620421,123.5 L156.620421,123.5 Z" id="Path" fill="#E1762F"></path>
            <path d="M81.820421,0 C90.020421,0 96.720421,7.1 96.720421,15.7 C96.720421,24.4 90.120421,31.4 81.820421,31.4 C73.620421,31.4 66.920421,24.3 66.920421,15.7 C66.920421,7.1 73.620421,0 81.820421,0" id="Path" fill="#7F3E13"></path>
            <path d="M81.820421,4.3 C75.720421,4.3 71.320421,9.7 71.320421,15.7 C71.320421,21.6 75.720421,27.1 81.820421,27.1 C87.920421,27.1 92.320421,21.7 92.320421,15.7 C92.320421,9.9 87.920421,4.3 81.820421,4.3" id="Path" fill="#B85A1B"></path>
            <path d="M81.820421,8.7 C78.020421,8.7 75.620421,12.2 75.620421,15.8 C75.620421,19.3 78.120421,22.9 81.820421,22.9 C85.620421,22.9 88.020421,19.4 88.020421,15.8 C88.020421,12.3 85.520421,8.7 81.820421,8.7" id="Path" fill="#63300F"></path>
            <path d="M145.020421,0 C153.220421,0 159.920421,7.1 159.920421,15.7 C159.920421,24.4 153.320421,31.4 145.020421,31.4 C136.820421,31.4 130.120421,24.3 130.120421,15.7 C130.120421,7.1 136.820421,0 145.020421,0" id="Path" fill="#7F3E13"></path>
            <path d="M145.020421,4.3 C138.920421,4.3 134.520421,9.7 134.520421,15.7 C134.520421,21.6 138.920421,27.1 145.020421,27.1 C151.120421,27.1 155.520421,21.7 155.520421,15.7 C155.520421,9.9 151.120421,4.3 145.020421,4.3" id="Path" fill="#B85A1B"></path>
            <path d="M145.020421,8.7 C141.220421,8.7 138.820421,12.2 138.820421,15.8 C138.820421,19.3 141.320421,22.9 145.020421,22.9 C148.820421,22.9 151.220421,19.4 151.220421,15.8 C151.220421,12.3 148.720421,8.7 145.020421,8.7" id="Path" fill="#4F2800"></path>
            <path d="M119.420421,7.4 C122.020421,7.4 124.120421,9.5 124.120421,12.1 C124.120421,14.7 122.020421,16.8 119.420421,16.8 C116.820421,16.8 114.720421,14.7 114.720421,12.1 C114.720421,9.5 116.820421,7.4 119.420421,7.4 M107.420421,7.4 C110.020421,7.4 112.120421,9.5 112.120421,12.1 C112.120421,14.7 110.020421,16.8 107.420421,16.8 C104.820421,16.8 102.720421,14.7 102.720421,12.1 C102.720421,9.5 104.820421,7.4 107.420421,7.4" id="Shape" fill="#7F3E13"></path>
            <path d="M168.320421,27 L168.320421,56.3 L168.620421,56.4 C172.920421,58.1 175.620421,62 175.620421,66.6 L175.620421,87.6 L113.420421,108.1 L51.220421,88.1 L51.220421,66.6 C51.220421,62 53.920421,58.1 58.220421,56.4 L58.520421,56.3 L58.520421,26.9 C58.520421,6.7 168.320421,6.7 168.320421,27 L168.320421,27 L168.320421,27 Z" id="Path" fill="#7F3E13"></path>
            <path d="M63.520421,28.1 L63.520421,59.7 L60.920421,60.7 C58.020421,61.8 56.320421,64.5 56.320421,67.5 L56.320421,89.7 L113.520421,108.1 L170.720421,89.3 L170.720421,67.5 C170.720421,64.4 168.920421,61.8 166.120421,60.7 L163.520421,59.7 L163.520421,28.1 C163.420421,13.1 63.620421,13.1 63.520421,28.1 L63.520421,28.1 L63.520421,28.1 Z" id="Path" fill="#B85A1B"></path>
            <path d="M63.520421,28.1 L63.520421,59.7 L60.920421,60.7 C58.020421,61.8 56.320421,64.5 56.320421,67.5 L56.320421,89.7 L113.520421,108.1 L113.520421,96.1 C93.720421,96.2 73.920421,83.2 79.120421,57.5 L113.520421,57.5 L113.520421,16.9 C88.520421,16.9 63.520421,20.7 63.520421,28.1 L63.520421,28.1 L63.520421,28.1 Z" id="Path" fill="#E1762F"></path>
            <path d="M76.420421,50.8 L150.720421,50.8 C161.220421,106.6 65.020421,106.2 76.420421,50.8" id="Path" fill="#E5895B"></path>
            <path d="M80.020421,55.2 C79.020421,63.8 80.820421,72.1 87.220421,78.6 C94.020421,85.4 104.220421,88.3 113.620421,88.2 C122.720421,88.1 132.320421,85.3 139.020421,78.9 C145.720421,72.4 147.820421,64 146.920421,55.2 L80.020421,55.2 L80.020421,55.2 Z" id="Path" fill="#E5895B"></path>
            <path d="M125.920421,81.2 C130.920421,87.7 145.520421,85 141.120421,71.3 L125.920421,81.2 L125.920421,81.2 Z" id="Path" fill="#FAD395"></path>
            <path d="M121.320421,79.8 C126.920421,87 145.120421,82.7 140.920421,67.1 L121.320421,79.8 L121.320421,79.8 Z" id="Path" fill="#4F2800"></path>
            <path d="M138.120421,67.8 C139.220421,67.5 140.420421,68.2 140.720421,69.4 C141.020421,70.6 140.420421,71.8 139.320421,72.1 C138.220421,72.4 137.020421,71.7 136.720421,70.5 C136.420421,69.4 137.020421,68.1 138.120421,67.8 M126.220421,76.1 C127.320421,75.8 128.420421,76.5 128.820421,77.7 C129.120421,78.9 128.520421,80.1 127.420421,80.4 C126.320421,80.7 125.220421,80 124.820421,78.8 C124.520421,77.6 125.120421,76.4 126.220421,76.1" id="Shape" fill="#FFFFFF"></path>
            <path d="M133.520421,82.6 C137.520421,81.3 140.920421,78.1 141.520421,73 C138.320421,72.5 132.720421,77.3 133.520421,82.6" id="Path" fill="#AD6151"></path>
            <path d="M84.020421,50.8 L142.920421,50.8 C151.320421,90.7 75.020421,90.3 84.020421,50.8" id="Path" fill="#FAD395"></path>
            <path d="M113.420421,73.5 C113.820421,71.1 114.720421,68.9 116.220421,66.9 C123.320421,65.8 129.420421,60.4 127.520421,50.8 C122.920421,49.2 118.220421,48.4 113.520421,48.4 L110.620421,57.5 L113.420421,73.5 L113.420421,73.5 L113.420421,73.5 Z" id="Path" fill="#4F2800"></path>
            <path d="M113.420421,73.5 C113.020421,71.1 112.120421,68.9 110.620421,66.9 C103.520421,65.8 97.420421,60.4 99.320421,50.8 C103.920421,49.2 108.620421,48.4 113.320421,48.4 L113.420421,73.5 L113.420421,73.5 L113.420421,73.5 Z" id="Path" fill="#63300F"></path>
            <path d="M103.020421,52.2 C110.020421,50.4 116.920421,50.4 123.920421,52.2 C126.820421,59.5 99.820421,59.4 103.020421,52.2" id="Path" fill="#AD6151"></path>
            <path d="M102.220421,31.9 C106.520421,31.9 110.120421,35.4 110.120421,39.8 C110.120421,44.1 106.620421,47.7 102.220421,47.7 C97.920421,47.7 94.320421,44.2 94.320421,39.8 C94.320421,35.5 97.820421,31.9 102.220421,31.9" id="Path" fill="#FFFFFF"></path>
            <path d="M102.820421,34.7 C106.020421,34.7 108.720421,37.3 108.720421,40.6 C108.720421,43.8 106.120421,46.5 102.820421,46.5 C99.620421,46.5 96.920421,43.9 96.920421,40.6 C96.920421,37.3 99.520421,34.7 102.820421,34.7" id="Path" fill="#1B1D23"></path>
            <path d="M124.820421,31.9 C120.520421,31.9 116.920421,35.4 116.920421,39.8 C116.920421,44.1 120.420421,47.7 124.820421,47.7 C129.120421,47.7 132.720421,44.2 132.720421,39.8 C132.720421,35.5 129.220421,31.9 124.820421,31.9" id="Path" fill="#FFFFFF"></path>
            <path d="M124.320421,34.7 C121.120421,34.7 118.420421,37.3 118.420421,40.6 C118.420421,43.8 121.020421,46.5 124.320421,46.5 C127.520421,46.5 130.220421,43.9 130.220421,40.6 C130.120421,37.3 127.520421,34.7 124.320421,34.7" id="Path" fill="#1B1D23"></path>
            <path d="M107.920421,29.4 C101.620421,28.2 96.320421,29.3 91.620421,32.3 C89.920421,22.6 106.220421,19.7 107.920421,29.4" id="Path" fill="#63300F"></path>
            <path d="M117.520421,24.5 C123.820421,23.3 129.120421,24.4 133.820421,27.4 C135.520421,17.7 119.320421,14.9 117.520421,24.5" id="Path" fill="#4F2800"></path>
            <path d="M175.520421,87.7 L175.520421,148.3 C175.520421,152.3 172.220421,155.7 168.120421,155.7 L58.520421,155.7 C54.520421,155.7 51.120421,152.4 51.120421,148.3 L51.120421,88.3 L113.320421,103.2 L175.520421,87.7 L175.520421,87.7 Z" id="Path" fill="#7EAABA"></path>
            <path d="M170.620421,94 L113.420421,108.1 L56.220421,94.5 L56.220421,147 C56.220421,149.1 57.820421,150.7 59.920421,150.7 L167.020421,150.7 C169.120421,150.7 170.720421,149.1 170.720421,147 L170.720421,94 L170.620421,94 Z" id="Path" fill="#D3E8EF"></path>
            <path d="M113.420421,108.2 L56.320421,94.5 L56.320421,147 C56.320421,149.1 57.920421,150.7 60.020421,150.7 L113.520421,150.7 L113.520421,108.2 L113.420421,108.2 Z" id="Path" fill="#FFFFFF"></path>
            <path d="M113.420421,136.3 L161.420421,136.3 L161.420421,139.5 L161.420421,142.7 L113.420421,142.7 L113.420421,136.3 L113.420421,136.3 Z M113.420421,123 L161.420421,123 L161.420421,126.2 L161.420421,129.4 L113.420421,129.4 L113.420421,123 L113.420421,123 Z" id="Shape" fill="#036AAB"></path>
            <path d="M113.420421,142.8 L113.420421,136.3 L65.420421,136.3 L65.420421,139.5 L65.420421,142.7 L113.420421,142.7 L113.420421,142.8 Z M65.420421,123 L113.420421,123 L113.420421,129.5 L65.420421,129.5 L65.420421,123 L65.420421,123 Z" id="Shape" fill="#0399ED"></path>
            <polygon id="Path" fill="#FFFFFF" points="84.920421 118.8 90.920421 118.8 90.920421 148.2 84.920421 148.2"></polygon>
            <path d="M68.020421,92.2 C83.220421,95.8 98.320421,99.5 113.420421,103.1 L97.220421,118.4 C86.720421,112.2 76.320421,105.4 68.020421,92.2" id="Path" fill="#7EAABA"></path>
            <path d="M80.820421,100.4 C85.420421,105 90.620421,108.6 96.520421,112.2 L103.320421,105.7 C95.920421,104 88.320421,102.1 80.820421,100.4" id="Path" fill="#FFFFFF"></path>
            <path d="M158.820421,92.2 C143.620421,95.8 128.520421,99.5 113.420421,103.1 L129.620421,118.4 C140.120421,112.2 150.520421,105.4 158.820421,92.2" id="Path" fill="#7EAABA"></path>
            <path d="M146.020421,100.4 C141.420421,105 136.220421,108.6 130.320421,112.2 L123.520421,105.7 C131.020421,104 138.520421,102.1 146.020421,100.4" id="Path" fill="#FFFFFF"></path>
        </g>
    </g>
</svg>