<?xml version="1.0" encoding="UTF-8"?>
<svg width="512px" height="478px" viewBox="0 0 512 478" version="1.1" xmlns="http://www.w3.org/2000/svg" xmlns:xlink="http://www.w3.org/1999/xlink">
	<title>WordPress Zero Spam</title>
	<g stroke="none" stroke-width="1" fill="none" fill-rule="evenodd">
		<g transform="translate(256.000000, 239.000000) scale(-1, 1) translate(-256.000000, -239.000000) " fill-rule="nonzero">
			<path d="M241,0 L96,0 C87.716,0 81,6.716 81,15 L81,127 C81,135.284 87.716,142 96,142 L241,142 C249.284,142 256,135.284 256,127 L256,15 C256,6.716 249.284,0 241,0 Z" id="Path" fill="#BE0000"></path>
			<path d="M176,112 L15,112 C6.716,112 0,118.716 0,127 L0,239 C0,247.284 6.716,254 15,254 L176,254 C184.284,254 191,247.284 191,239 L191,127 C191,118.716 184.284,112 176,112 Z" id="Path" fill="#FF7038"></path>
			<path d="M351,127 L351,239 C351,247.28 344.28,254 336,254 L176,254 L176,112 L336,112 C344.28,112 351,118.72 351,127 Z" id="Path" fill="#FF2929"></path>
			<path d="M351,127 L351,239 C351,247.28 344.28,254 336,254 L256,254 L256,112 L336,112 C344.28,112 351,118.72 351,127 Z" id="Path" fill="#BE0000"></path>
			<path d="M512,127 L512,239 C512,247.28 505.28,254 497,254 L336,254 L336,112 L497,112 C505.28,112 512,118.72 512,127 Z" id="Path" fill="#63000D"></path>
			<path d="M111,239 L111,351 C111,359.28 104.28,366 96,366 L15,366 C6.72,366 0,359.28 0,351 L0,239 L111,239 Z" id="Path" fill="#FF2929"></path>
			<path d="M271,239 L271,351 C271,359.28 264.28,366 256,366 L96,366 L96,239 L271,239 Z" id="Path" fill="#BE0000"></path>
			<path d="M431,239 L431,351 C431,359.28 424.28,366 416,366 L256,366 L256,239 L431,239 Z" id="Path" fill="#840012"></path>
			<path d="M512,239 L512,351 C512,359.28 505.28,366 497,366 L416,366 L416,239 L512,239 Z" id="Path" fill="#BE0000"></path>
			<path d="M191,351 L191,463 C191,471.28 184.28,478 176,478 L15,478 C6.72,478 0,471.28 0,463 L0,351 L191,351 Z" id="Path" fill="#FFA17C"></path>
			<path d="M351,351 L351,463 C351,471.28 344.28,478 336,478 L176,478 L176,351 L351,351 Z" id="Path" fill="#FF2929"></path>
			<path d="M351,351 L351,463 C351,471.28 344.28,478 336,478 L256,478 L256,351 L351,351 Z" id="Path" fill="#BE0000"></path>
			<path d="M512,351 L512,463 C512,471.28 505.28,478 497,478 L336,478 L336,351 L512,351 Z" id="Path" fill="#63000D"></path>
		</g>
	</g>
</svg>
