<svg width="24px" height="24px" viewBox="0 0 24 24" xmlns="http://www.w3.org/2000/svg">
  <path fill-rule="evenodd" d="M19.7903934,18.6127185 L19.7072026,18.7069258 L16.7071326,21.7069258 C16.6801187,21.7339397 16.6515664,21.7594153 16.6216183,21.7832098 L16.500353,21.8659223 L16.500353,21.8659223 L16.427064,21.9043128 L16.427064,21.9043128 L16.3400271,21.9405322 L16.3400271,21.9405322 L16.2335653,21.9723902 L16.2335653,21.9723902 L16.116647,21.9930913 L16.033029,21.9992768 L16.033029,21.9992768 L15.9409671,21.9980859 L15.8251966,21.9845213 L15.8251966,21.9845213 L15.6878494,21.9500809 L15.6878494,21.9500809 L15.5767675,21.9061457 L15.5767675,21.9061457 L15.4792778,21.8538236 L15.4792778,21.8538236 L15.3832241,21.7870331 L15.2928749,21.7069258 L12.2927974,18.7069258 C11.902263,18.3164015 11.902263,17.6832365 12.2927974,17.2927122 C12.6532907,16.9322283 13.2205364,16.9044987 13.6128377,17.2095236 L13.7070475,17.2927122 L14.9998966,18.584819 L14.9999741,8.99981902 C14.9999741,8.48698318 15.3860143,8.06431186 15.883353,8.00654675 L16.0000259,7.99981902 C16.5523106,7.99981902 17.0000259,8.44753427 17.0000259,8.99981902 L16.9998966,18.584819 L18.2929525,17.2927122 C18.6534458,16.9322283 19.2206915,16.9044987 19.6129929,17.2095236 L19.7072026,17.2927122 C20.0376548,17.6231559 20.0884936,18.1273245 19.859719,18.511222 L19.7903934,18.6127185 L19.7903934,18.6127185 Z M4.29279737,5.29255711 L7.29286736,2.29255711 L7.40481484,2.1959774 L7.51569719,2.12453966 L7.51569719,2.12453966 L7.62891562,2.07076785 L7.62891562,2.07076785 L7.73413453,2.03538486 L7.73413453,2.03538486 L7.82519664,2.01496161 L7.82519664,2.01496161 L7.94096709,2.00139699 L8.05914398,2.00139699 L8.05914398,2.00139699 L8.17466132,2.0149356 L8.17466132,2.0149356 L8.31274961,2.04953478 L8.31274961,2.04953478 L8.36670687,2.06905084 L8.45385903,2.10832658 L8.45385903,2.10832658 L8.52068604,2.14573132 L8.52068604,2.14573132 L8.60170489,2.20078783 L8.60170489,2.20078783 L8.66547577,2.25320781 L8.66547577,2.25320781 L8.70713264,2.29255711 L11.7072026,5.29255711 L11.7903934,5.38676445 C12.0700068,5.74636472 12.0700068,6.25296306 11.7903934,6.61256333 L11.7072026,6.70677067 L11.6129929,6.78995928 C11.2533833,7.06956543 10.7467718,7.06956543 10.3871623,6.78995928 L10.2929525,6.70677067 L8.99989658,5.41466389 L9.00002585,14.9996639 C9.00002585,15.5124997 8.61398566,15.9351711 8.11664698,15.9929362 L8.00002585,15.9996639 L7.88335302,15.9929362 C7.42427116,15.9396145 7.06002351,15.5753669 7.00670188,15.116285 L6.99997415,14.9996639 L6.99989658,5.41466389 L5.7070475,6.70677067 L5.61283773,6.78995928 C5.22053638,7.09498417 4.65329066,7.06725463 4.29279737,6.70677067 C3.93230409,6.34628671 3.90457384,5.77905565 4.20960662,5.38676445 L4.29279737,5.29255711 Z"/>
</svg>
