<?xml version="1.0" encoding="iso-8859-1"?>
<!-- Generator: Adobe Illustrator 19.0.0, SVG Export Plug-In . SVG Version: 6.00 Build 0)  -->
<svg version="1.1" id="Layer_1" xmlns="http://www.w3.org/2000/svg" xmlns:xlink="http://www.w3.org/1999/xlink" x="0px" y="0px"
	 viewBox="0 0 309.267 309.267" style="enable-background:new 0 0 309.267 309.267;" xml:space="preserve">
<g>
	<path style="fill:#F4B459;" d="M28.994,256.112h251.279c16.014,0,28.994-12.989,28.994-28.994V82.149
		c0-16.014-12.98-28.994-28.994-28.994H28.994C12.989,53.155,0,66.135,0,82.149v144.969C0,243.123,12.989,256.112,28.994,256.112z"
		/>
	<g>
		<path style="fill:#E8AB54;" d="M9.723,248.622l120.943-93.07L9.984,60.413C3.914,65.729,0,73.441,0,82.149v144.969
			C0,235.69,3.798,243.316,9.723,248.622z M299.486,60.578l-125.417,95.245l125.301,92.944c6.031-5.306,9.897-12.999,9.897-21.649
			V82.149C309.267,73.538,305.44,65.893,299.486,60.578z"/>
	</g>
	<path style="fill:#FADAAC;" d="M305.44,241.257L199.825,156.75l106.881-86.44c-2.378-5.267-6.253-9.665-11.105-12.69
		L159.079,166.83L18.865,55.069c-5.644,2.117-10.486,5.866-13.83,10.776l112.892,90.548L6.495,245.181
		c3.798,4.716,8.978,8.196,14.99,9.819l110.399-87.32l6.736,5.432c11.308,11.646,29.641,11.646,40.959,0l6.272-5.074l107.267,84.942
		C298.327,250.39,302.589,246.312,305.44,241.257z"/>
</g>
<g>
</g>
<g>
</g>
<g>
</g>
<g>
</g>
<g>
</g>
<g>
</g>
<g>
</g>
<g>
</g>
<g>
</g>
<g>
</g>
<g>
</g>
<g>
</g>
<g>
</g>
<g>
</g>
<g>
</g>
</svg>
