<?xml version="1.0" encoding="UTF-8"?>
<svg width="668px" height="668px" viewBox="0 0 668 668" version="1.1" xmlns="http://www.w3.org/2000/svg" xmlns:xlink="http://www.w3.org/1999/xlink">
    <title>Group</title>
    <g id="Page-1" stroke="none" stroke-width="1" fill="none" fill-rule="evenodd">
        <g id="WordPress-logotype-wmark" transform="translate(-128.000000, -118.000000)" fill="#32373C">
            <g id="Group" transform="translate(128.666900, 118.666700)">
                <path d="M333.333,0 C149.238,0 0,149.238 0,333.333 C0,517.428 149.238,666.667 333.333,666.667 C517.428,666.667 666.666,517.428 666.666,333.333 C666.666,149.238 517.428,0 333.333,0 M333.333,20 C375.642,20 416.674,28.282 455.29,44.615 C473.852,52.466 491.757,62.185 508.507,73.5 C525.103,84.712 540.709,97.589 554.893,111.773 C569.077,125.957 581.954,141.564 593.166,158.159 C604.482,174.909 614.2,192.814 622.051,211.376 C638.385,249.992 646.666,291.025 646.666,333.333 C646.666,375.642 638.385,416.674 622.051,455.29 C614.2,473.852 604.482,491.757 593.166,508.507 C581.954,525.103 569.077,540.709 554.893,554.893 C540.709,569.077 525.103,581.954 508.507,593.166 C491.757,604.482 473.852,614.2 455.29,622.051 C416.674,638.385 375.642,646.667 333.333,646.667 C291.025,646.667 249.992,638.385 211.376,622.051 C192.814,614.2 174.909,604.482 158.159,593.166 C141.564,581.954 125.957,569.077 111.773,554.893 C97.589,540.709 84.712,525.103 73.5,508.507 C62.185,491.757 52.466,473.852 44.615,455.29 C28.282,416.674 20,375.642 20,333.333 C20,291.025 28.282,249.992 44.615,211.376 C52.466,192.814 62.185,174.909 73.5,158.159 C84.712,141.564 97.589,125.957 111.773,111.773 C125.957,97.589 141.564,84.712 158.159,73.5 C174.909,62.185 192.814,52.466 211.376,44.615 C249.992,28.282 291.025,20 333.333,20" id="Fill-3"></path>
                <path d="M577.0923,200.0657 C578.2853,208.9117 578.9593,218.4027 578.9593,228.6267 C578.9593,256.8037 573.6803,288.4907 557.8303,328.1167 L472.9913,573.4137 C555.5743,525.2677 611.1113,435.7987 611.1113,333.3227 C611.1113,285.0287 598.7693,239.6267 577.0923,200.0657 L577.0923,200.0657 Z M338.2133,357.6197 L254.8573,599.7927 C279.7513,607.1167 306.0693,611.1107 333.3333,611.1107 C365.6803,611.1107 396.7123,605.5277 425.5823,595.3617 C424.8393,594.1737 424.1543,592.9117 423.5893,591.5337 L338.2133,357.6197 Z M520.8563,319.3137 C520.8563,284.9737 508.5213,261.2057 497.9573,242.7087 C483.8753,219.8167 470.6703,200.4497 470.6703,177.5587 C470.6703,152.0287 490.0313,128.2607 517.3173,128.2607 C518.5503,128.2607 519.7173,128.4087 520.9143,128.4847 C471.4933,83.2027 405.6493,55.5557 333.3333,55.5557 C236.2843,55.5557 150.9123,105.3507 101.2423,180.7527 C107.7643,180.9597 113.9093,181.0897 119.1193,181.0897 C148.1673,181.0897 193.1543,177.5587 193.1543,177.5587 C208.1203,176.6817 209.8893,198.6807 194.9303,200.4497 C194.9303,200.4497 179.8773,202.2127 163.1413,203.0887 L264.2913,503.9727 L325.0883,321.6627 L281.8133,203.0887 C266.8473,202.2127 252.6793,200.4497 252.6793,200.4497 C237.7053,199.5657 239.4593,176.6817 254.4413,177.5587 C254.4413,177.5587 300.3043,181.0897 327.5973,181.0897 C356.6453,181.0897 401.6393,177.5587 401.6393,177.5587 C416.6133,176.6817 418.3753,198.6807 403.4093,200.4497 C403.4093,200.4497 388.3413,202.2127 371.6193,203.0887 L472.0053,501.6807 L500.6613,410.8797 C513.3923,371.1967 520.8563,343.0817 520.8563,319.3137 L520.8563,319.3137 Z M55.5553,333.3227 C55.5553,443.2677 119.4453,538.2907 212.1153,583.3117 L79.6083,220.2777 C64.1953,254.8207 55.5553,293.0507 55.5553,333.3227 L55.5553,333.3227 Z" id="Fill-5"></path>
            </g>
        </g>
    </g>
</svg>