<?xml version="1.0" ?><svg width="32px" height="32px" viewBox="0 0 32 32" xmlns="http://www.w3.org/2000/svg"><defs><style>.cls-1{fill:#8c9eff;}.cls-2{fill:#5f7cf9;}.cls-3{fill:#4062ed;}</style></defs><title/><g id="Map"><path class="cls-1" d="M25.7,11.49a10.49,10.49,0,0,0-2.84-6.63,9.71,9.71,0,0,0-13.72,0A10.49,10.49,0,0,0,6.3,11.49c-.27,3.13,1.22,5.8,2.78,8.27.37.58,3.64,5.78,5.22,8.35a2,2,0,0,0,1.7.95h0a2,2,0,0,0,1.7-.95c1.58-2.57,4.85-7.77,5.22-8.35C24.48,17.29,26,14.62,25.7,11.49Z"/><path class="cls-2" d="M17.7,28.11c1.58-2.57,4.85-7.77,5.22-8.35,1.56-2.47,3-5.14,2.78-8.27a10.49,10.49,0,0,0-2.84-6.63A9.64,9.64,0,0,0,16,2v27A2,2,0,0,0,17.7,28.11Z"/><circle class="cls-2" cx="16" cy="12" r="4"/><path class="cls-3" d="M20,12a4,4,0,0,0-4-4v8A4,4,0,0,0,20,12Z"/></g></svg>