<?xml version="1.0" encoding="iso-8859-1"?>
<!-- Generator: Adobe Illustrator 19.0.0, SVG Export Plug-In . SVG Version: 6.00 Build 0)  -->
<svg version="1.1" id="Layer_1" xmlns="http://www.w3.org/2000/svg" xmlns:xlink="http://www.w3.org/1999/xlink" x="0px" y="0px"
	 viewBox="0 0 512 512" style="enable-background:new 0 0 512 512;" xml:space="preserve">
<g>
	<path style="fill:#C74C4E;" d="M495.078,327.706H438.13c-9.346,0-16.922-7.577-16.922-16.922c0-9.346,7.577-16.922,16.922-16.922
		h56.947c9.346,0,16.922,7.577,16.922,16.922C512,320.13,504.423,327.706,495.078,327.706z"/>
	<path style="fill:#C74C4E;" d="M372.82,193.964c-6.609-6.609-6.609-17.323,0-23.932l40.267-40.266
		c6.608-6.609,17.323-6.608,23.932,0c6.609,6.609,6.609,17.323,0,23.932l-40.267,40.267
		C390.143,200.572,379.428,200.573,372.82,193.964z"/>
	<path style="fill:#C74C4E;" d="M413.087,491.803l-40.267-40.267c-6.609-6.609-6.609-17.323,0-23.932
		c6.608-6.609,17.323-6.609,23.932,0l40.267,40.267c6.609,6.609,6.609,17.323,0,23.932
		C430.411,498.412,419.696,498.413,413.087,491.803z"/>
</g>
<g>
	<path style="fill:#DE5153;" d="M73.87,327.706H16.922C7.577,327.706,0,320.13,0,310.784c0-9.346,7.577-16.922,16.922-16.922H73.87
		c9.346,0,16.922,7.577,16.922,16.922C90.792,320.13,83.215,327.706,73.87,327.706z"/>
	<path style="fill:#DE5153;" d="M115.248,193.964l-40.267-40.267c-6.609-6.608-6.609-17.323,0-23.932
		c6.608-6.609,17.323-6.609,23.932,0l40.267,40.266c6.609,6.609,6.609,17.323,0,23.932
		C132.574,200.572,121.857,200.573,115.248,193.964z"/>
	<path style="fill:#DE5153;" d="M74.981,491.803c-6.609-6.609-6.609-17.323,0-23.932l40.267-40.267
		c6.608-6.609,17.323-6.609,23.932,0s6.609,17.323,0,23.932l-40.267,40.267C92.305,498.412,81.589,498.413,74.981,491.803z"/>
	<path style="fill:#DE5153;" d="M318.458,157.792c-19.824-8.106-40.838-12.216-62.458-12.216c-21.619,0-42.633,4.11-62.458,12.216
		c-9.484,3.876-20.213-1.507-22.783-11.411c-6.887-26.532-1.199-54.209,15.608-75.937c16.808-21.73,42.189-34.192,69.635-34.192
		s52.826,12.461,69.633,34.188c16.807,21.727,22.497,49.407,15.609,75.94C338.659,156.338,327.89,161.648,318.458,157.792z"/>
</g>
<path style="fill:#C74C4E;" d="M325.633,70.44C308.827,48.713,283.446,36.252,256,36.252v109.324c21.62,0,42.634,4.11,62.458,12.216
	c9.431,3.856,20.2-1.454,22.783-11.412C348.13,119.846,342.441,92.167,325.633,70.44z"/>
<g>
	<path style="fill:#FC5B5D;" d="M244.924,65.966l-39.36-34.086c-7.066-6.118-7.833-16.805-1.715-23.871
		c6.117-7.065,16.805-7.833,23.87-1.714L256,30.788l28.282-24.492c7.062-6.12,17.75-5.351,23.87,1.714s5.351,17.752-1.715,23.871
		l-39.36,34.086C260.722,71.473,251.28,71.473,244.924,65.966z"/>
	<path style="fill:#FC5B5D;" d="M256,509.837c-109.759,0-199.053-89.295-199.053-199.053c0-109.971,89.103-199.053,199.053-199.053
		c109.935,0,199.053,89.071,199.053,199.053C455.053,420.542,365.759,509.837,256,509.837z"/>
</g>
<g>
	<path style="fill:#DE5153;" d="M256,111.731v398.105c109.759,0,199.053-89.295,199.053-199.053
		C455.053,200.802,365.935,111.731,256,111.731z"/>
	<path style="fill:#DE5153;" d="M239.078,112.451V509.11c10.98,0.928,21.944,1.006,33.845,0V112.451
		C261.924,111.528,250.948,111.456,239.078,112.451z"/>
	<path style="fill:#DE5153;" d="M164.935,356.356c-25.128,0-45.572-20.443-45.572-45.572c0-25.128,20.443-45.572,45.572-45.572
		s45.572,20.443,45.572,45.572C210.507,335.913,190.064,356.356,164.935,356.356z"/>
	<circle style="fill:#DE5153;" cx="195.702" cy="397.26" r="17.336"/>
	<circle style="fill:#DE5153;" cx="204.332" cy="227.889" r="17.336"/>
	<path style="fill:#DE5153;" d="M308.153,8.008c-6.119-7.065-16.807-7.834-23.87-1.714l-28.282,24.492L256,30.786v39.31
		c3.95,0,7.901-1.376,11.079-4.13l39.36-34.086C313.505,25.761,314.272,15.074,308.153,8.008z"/>
</g>
<g>
	<path style="fill:#C74C4E;" d="M272.922,112.451c-5.606-0.47-11.207-0.716-16.922-0.716v398.099c5.491,0,11.093-0.229,16.922-0.723
		V112.451z"/>
	<path style="fill:#C74C4E;" d="M347.065,356.356c-25.128,0-45.572-20.443-45.572-45.572c0-25.128,20.443-45.572,45.572-45.572
		c25.129,0,45.572,20.443,45.572,45.572C392.636,335.913,372.193,356.356,347.065,356.356z"/>
	<circle style="fill:#C74C4E;" cx="316.302" cy="397.26" r="17.336"/>
	<circle style="fill:#C74C4E;" cx="307.672" cy="227.889" r="17.336"/>
</g>
<g>
</g>
<g>
</g>
<g>
</g>
<g>
</g>
<g>
</g>
<g>
</g>
<g>
</g>
<g>
</g>
<g>
</g>
<g>
</g>
<g>
</g>
<g>
</g>
<g>
</g>
<g>
</g>
<g>
</g>
</svg>
