<?xml version="1.0" encoding="iso-8859-1"?>
<!-- Generator: Adobe Illustrator 19.0.0, SVG Export Plug-In . SVG Version: 6.00 Build 0)  -->
<svg version="1.1" id="Layer_1" xmlns="http://www.w3.org/2000/svg" xmlns:xlink="http://www.w3.org/1999/xlink" x="0px" y="0px"
	 viewBox="0 0 512 512" style="enable-background:new 0 0 512 512;" xml:space="preserve">
<rect x="73.846" y="334.769" style="fill:#707487;" width="49.231" height="78.769"/>
<path style="fill:#FF7873;" d="M452.923,167.385v118.154l50.849-8.475c4.747-0.791,8.228-4.898,8.228-9.712v-81.78
	c0-4.814-3.479-8.921-8.228-9.712L452.923,167.385z"/>
<path style="fill:#FF5050;" d="M452.923,0h-5.093c-3.003,0-5.744,1.41-7.623,3.753C368.023,93.66,102.871,106.256,29.041,108.021
	c-10.699,0.255-19.195,8.982-19.195,19.684v197.513c0,10.702,8.496,19.429,19.195,19.685
	c73.831,1.765,338.982,14.359,411.166,104.267c1.879,2.341,4.62,3.753,7.623,3.753h5.093c5.438,0,9.846-4.409,9.846-9.846V9.846
	C462.769,4.409,458.361,0,452.923,0z"/>
<path style="fill:#C84146;" d="M452.923,324.923h-5.093c-3.003,0-5.744-0.768-7.623-2.039
	c-64.496-43.659-282.938-53.769-381.415-56.111c-5.342-0.127-9.561-4.497-9.561-9.84V107.386c-7.691,0.29-14.556,0.5-20.19,0.634
	c-10.699,0.256-19.195,8.983-19.195,19.685v197.513c0,10.702,8.496,19.429,19.195,19.685
	c73.831,1.765,338.982,14.359,411.166,104.267c1.879,2.341,4.62,3.753,7.623,3.753h5.093c5.438,0,9.846-4.409,9.846-9.846V319.572
	C462.769,322.527,458.361,324.923,452.923,324.923z"/>
<g>
	<path style="fill:#91282D;" d="M128,177.231H49.231c-5.442,0-9.846-4.404-9.846-9.846c0-5.442,4.404-9.846,9.846-9.846H128
		c5.442,0,9.846,4.404,9.846,9.846C137.846,172.827,133.442,177.231,128,177.231z"/>
	<path style="fill:#91282D;" d="M128,295.385H49.231c-5.442,0-9.846-4.404-9.846-9.846c0-5.442,4.404-9.846,9.846-9.846H128
		c5.442,0,9.846,4.404,9.846,9.846C137.846,290.981,133.442,295.385,128,295.385z"/>
</g>
<path style="fill:#FF5050;" d="M130.414,409.631C127.086,394.655,113.803,384,98.462,384s-28.624,10.655-31.952,25.631
	l-20.561,92.523h105.025L130.414,409.631z"/>
<path style="fill:#959CB5;" d="M187.077,512H9.846C4.404,512,0,507.596,0,502.154c0-5.442,4.404-9.846,9.846-9.846h177.231
	c5.442,0,9.846,4.404,9.846,9.846C196.923,507.595,192.519,512,187.077,512z"/>
<path style="fill:#91282D;" d="M128,236.308H49.231c-5.442,0-9.846-4.404-9.846-9.846s4.404-9.846,9.846-9.846H128
	c5.442,0,9.846,4.404,9.846,9.846S133.442,236.308,128,236.308z"/>
<circle style="fill:#707487;" cx="98.462" cy="413.538" r="14.769"/>
<g>
</g>
<g>
</g>
<g>
</g>
<g>
</g>
<g>
</g>
<g>
</g>
<g>
</g>
<g>
</g>
<g>
</g>
<g>
</g>
<g>
</g>
<g>
</g>
<g>
</g>
<g>
</g>
<g>
</g>
</svg>
