<?xml version="1.0" encoding="UTF-8"?>
<svg width="123px" height="11px" viewBox="0 0 123 11" version="1.1" xmlns="http://www.w3.org/2000/svg" xmlns:xlink="http://www.w3.org/1999/xlink">
    <title>Zero Spam for WordPress</title>
    <g id="Page-1" stroke="none" stroke-width="1" fill="none" fill-rule="evenodd">
        <g fill="#FFFFFF" fill-rule="nonzero">
            <g transform="translate(64.000000, 2.000000)">
                <path d="M0.176,3.752 C0.122666667,3.752 0.08,3.736 0.048,3.704 C0.016,3.672 -1.13686838e-13,3.62933333 -1.13686838e-13,3.576 L-1.13686838e-13,3.464 C-1.13686838e-13,3.41066667 0.016,3.368 0.048,3.336 C0.08,3.304 0.122666667,3.288 0.176,3.288 L4.776,3.288 C4.82933333,3.288 4.872,3.304 4.904,3.336 C4.936,3.368 4.952,3.41066667 4.952,3.464 L4.952,3.576 C4.952,3.62933333 4.936,3.672 4.904,3.704 C4.872,3.736 4.82933333,3.752 4.776,3.752 L0.176,3.752 Z"></path>
                <path d="M8.664,5.92 C8.61066667,5.92 8.568,5.904 8.536,5.872 C8.504,5.84 8.488,5.79733333 8.488,5.744 L8.488,2.224 L7.776,2.224 C7.72266667,2.224 7.68,2.208 7.648,2.176 C7.616,2.144 7.6,2.10133333 7.6,2.048 L7.6,1.936 C7.6,1.88266667 7.616,1.84 7.648,1.808 C7.68,1.776 7.72266667,1.76 7.776,1.76 L8.488,1.76 L8.488,1.304 C8.488,1.064 8.52133333,0.845333333 8.588,0.648 C8.65466667,0.450666667 8.77466667,0.293333333 8.948,0.176 C9.12133333,0.0586666667 9.37066667,0 9.696,0 L10.112,0 C10.1653333,0 10.208,0.016 10.24,0.048 C10.272,0.08 10.288,0.122666667 10.288,0.176 L10.288,0.288 C10.288,0.341333333 10.272,0.384 10.24,0.416 C10.208,0.448 10.1653333,0.464 10.112,0.464 L9.696,0.464 C9.41333333,0.464 9.22266667,0.54 9.124,0.692 C9.02533333,0.844 8.976,1.06133333 8.976,1.344 L8.976,1.76 L10.032,1.76 C10.0853333,1.76 10.128,1.776 10.16,1.808 C10.192,1.84 10.208,1.88266667 10.208,1.936 L10.208,2.048 C10.208,2.10133333 10.192,2.144 10.16,2.176 C10.128,2.208 10.0853333,2.224 10.032,2.224 L8.976,2.224 L8.976,5.744 C8.976,5.79733333 8.96,5.84 8.928,5.872 C8.896,5.904 8.85333333,5.92 8.8,5.92 L8.664,5.92 Z"></path>
                <path d="M12.472,6 C12.088,6 11.7666667,5.92 11.508,5.76 C11.2493333,5.6 11.052,5.38133333 10.916,5.104 C10.78,4.82666667 10.7066667,4.51733333 10.696,4.176 C10.6906667,4.096 10.688,3.984 10.688,3.84 C10.688,3.696 10.6906667,3.584 10.696,3.504 C10.7066667,3.15733333 10.78,2.84666667 10.916,2.572 C11.052,2.29733333 11.2493333,2.08 11.508,1.92 C11.7666667,1.76 12.088,1.68 12.472,1.68 C12.856,1.68 13.1773333,1.76 13.436,1.92 C13.6946667,2.08 13.892,2.29733333 14.028,2.572 C14.164,2.84666667 14.2373333,3.15733333 14.248,3.504 C14.2533333,3.584 14.256,3.696 14.256,3.84 C14.256,3.984 14.2533333,4.096 14.248,4.176 C14.2373333,4.51733333 14.164,4.82666667 14.028,5.104 C13.892,5.38133333 13.6946667,5.6 13.436,5.76 C13.1773333,5.92 12.856,6 12.472,6 Z M12.472,5.536 C12.8453333,5.536 13.1493333,5.416 13.384,5.176 C13.6186667,4.936 13.744,4.58933333 13.76,4.136 C13.7653333,4.056 13.768,3.95733333 13.768,3.84 C13.768,3.72266667 13.7653333,3.624 13.76,3.544 C13.744,3.08533333 13.6186667,2.73733333 13.384,2.5 C13.1493333,2.26266667 12.8453333,2.144 12.472,2.144 C12.0986667,2.144 11.7946667,2.26266667 11.56,2.5 C11.3253333,2.73733333 11.2,3.08533333 11.184,3.544 C11.1786667,3.624 11.176,3.72266667 11.176,3.84 C11.176,3.95733333 11.1786667,4.056 11.184,4.136 C11.2,4.58933333 11.3253333,4.936 11.56,5.176 C11.7946667,5.416 12.0986667,5.536 12.472,5.536 Z" id="Shape"></path>
                <path d="M15.528,5.92 C15.4746667,5.92 15.432,5.904 15.4,5.872 C15.368,5.84 15.352,5.79733333 15.352,5.744 L15.352,1.944 C15.352,1.89066667 15.368,1.84666667 15.4,1.812 C15.432,1.77733333 15.4746667,1.76 15.528,1.76 L15.656,1.76 C15.7093333,1.76 15.7533333,1.77733333 15.788,1.812 C15.8226667,1.84666667 15.84,1.89066667 15.84,1.944 L15.84,2.312 C15.936,2.12533333 16.0746667,1.98666667 16.256,1.896 C16.4373333,1.80533333 16.6613333,1.76 16.928,1.76 L17.224,1.76 C17.2773333,1.76 17.32,1.776 17.352,1.808 C17.384,1.84 17.4,1.88266667 17.4,1.936 L17.4,2.048 C17.4,2.10133333 17.384,2.144 17.352,2.176 C17.32,2.208 17.2773333,2.224 17.224,2.224 L16.88,2.224 C16.56,2.224 16.3066667,2.31733333 16.12,2.504 C15.9333333,2.69066667 15.84,2.944 15.84,3.264 L15.84,5.744 C15.84,5.79733333 15.8226667,5.84 15.788,5.872 C15.7533333,5.904 15.7093333,5.92 15.656,5.92 L15.528,5.92 Z"></path>
                <path d="M20.92,5.92 C20.856,5.92 20.8066667,5.90533333 20.772,5.876 C20.7373333,5.84666667 20.712,5.79733333 20.696,5.728 L19.6,0.576 C19.5946667,0.554666667 19.5906667,0.534666667 19.588,0.516 C19.5853333,0.497333333 19.584,0.485333333 19.584,0.48 C19.584,0.437333333 19.6,0.4 19.632,0.368 C19.664,0.336 19.7013333,0.32 19.744,0.32 L19.912,0.32 C20.0133333,0.32 20.072,0.36 20.088,0.44 L21.024,5 L22.016,1.744 C22.032,1.696 22.06,1.65333333 22.1,1.616 C22.14,1.57866667 22.1946667,1.56 22.264,1.56 L22.44,1.56 C22.5146667,1.56 22.5706667,1.57866667 22.608,1.616 C22.6453333,1.65333333 22.672,1.696 22.688,1.744 L23.68,5 L24.616,0.44 C24.632,0.36 24.6906667,0.32 24.792,0.32 L24.96,0.32 C25.0026667,0.32 25.04,0.336 25.072,0.368 C25.104,0.4 25.12,0.437333333 25.12,0.48 C25.12,0.485333333 25.1186667,0.497333333 25.116,0.516 C25.1133333,0.534666667 25.1093333,0.554666667 25.104,0.576 L24.008,5.728 C23.992,5.79733333 23.9666667,5.84666667 23.932,5.876 C23.8973333,5.90533333 23.848,5.92 23.784,5.92 L23.664,5.92 C23.6,5.92 23.548,5.904 23.508,5.872 C23.468,5.84 23.4373333,5.792 23.416,5.728 L22.352,2.352 L21.288,5.728 C21.2666667,5.792 21.236,5.84 21.196,5.872 C21.156,5.904 21.104,5.92 21.04,5.92 L20.92,5.92 Z"></path>
                <path d="M27.56,6 C27.176,6 26.8546667,5.92 26.596,5.76 C26.3373333,5.6 26.14,5.38133333 26.004,5.104 C25.868,4.82666667 25.7946667,4.51733333 25.784,4.176 C25.7786667,4.096 25.776,3.984 25.776,3.84 C25.776,3.696 25.7786667,3.584 25.784,3.504 C25.7946667,3.15733333 25.868,2.84666667 26.004,2.572 C26.14,2.29733333 26.3373333,2.08 26.596,1.92 C26.8546667,1.76 27.176,1.68 27.56,1.68 C27.944,1.68 28.2653333,1.76 28.524,1.92 C28.7826667,2.08 28.98,2.29733333 29.116,2.572 C29.252,2.84666667 29.3253333,3.15733333 29.336,3.504 C29.3413333,3.584 29.344,3.696 29.344,3.84 C29.344,3.984 29.3413333,4.096 29.336,4.176 C29.3253333,4.51733333 29.252,4.82666667 29.116,5.104 C28.98,5.38133333 28.7826667,5.6 28.524,5.76 C28.2653333,5.92 27.944,6 27.56,6 Z M27.56,5.536 C27.9333333,5.536 28.2373333,5.416 28.472,5.176 C28.7066667,4.936 28.832,4.58933333 28.848,4.136 C28.8533333,4.056 28.856,3.95733333 28.856,3.84 C28.856,3.72266667 28.8533333,3.624 28.848,3.544 C28.832,3.08533333 28.7066667,2.73733333 28.472,2.5 C28.2373333,2.26266667 27.9333333,2.144 27.56,2.144 C27.1866667,2.144 26.8826667,2.26266667 26.648,2.5 C26.4133333,2.73733333 26.288,3.08533333 26.272,3.544 C26.2666667,3.624 26.264,3.72266667 26.264,3.84 C26.264,3.95733333 26.2666667,4.056 26.272,4.136 C26.288,4.58933333 26.4133333,4.936 26.648,5.176 C26.8826667,5.416 27.1866667,5.536 27.56,5.536 Z" id="Shape"></path>
                <path d="M30.616,5.92 C30.5626667,5.92 30.52,5.904 30.488,5.872 C30.456,5.84 30.44,5.79733333 30.44,5.744 L30.44,1.944 C30.44,1.89066667 30.456,1.84666667 30.488,1.812 C30.52,1.77733333 30.5626667,1.76 30.616,1.76 L30.744,1.76 C30.7973333,1.76 30.8413333,1.77733333 30.876,1.812 C30.9106667,1.84666667 30.928,1.89066667 30.928,1.944 L30.928,2.312 C31.024,2.12533333 31.1626667,1.98666667 31.344,1.896 C31.5253333,1.80533333 31.7493333,1.76 32.016,1.76 L32.312,1.76 C32.3653333,1.76 32.408,1.776 32.44,1.808 C32.472,1.84 32.488,1.88266667 32.488,1.936 L32.488,2.048 C32.488,2.10133333 32.472,2.144 32.44,2.176 C32.408,2.208 32.3653333,2.224 32.312,2.224 L31.968,2.224 C31.648,2.224 31.3946667,2.31733333 31.208,2.504 C31.0213333,2.69066667 30.928,2.944 30.928,3.264 L30.928,5.744 C30.928,5.79733333 30.9106667,5.84 30.876,5.872 C30.8413333,5.904 30.7973333,5.92 30.744,5.92 L30.616,5.92 Z"></path>
                <path d="M34.624,6 C34.3146667,6 34.052,5.944 33.836,5.832 C33.62,5.72 33.4453333,5.57066667 33.312,5.384 C33.1786667,5.19733333 33.0813333,4.98933333 33.02,4.76 C32.9586667,4.53066667 32.9226667,4.29866667 32.912,4.064 C32.9066667,3.984 32.904,3.90933333 32.904,3.84 C32.904,3.77066667 32.9066667,3.696 32.912,3.616 C32.9226667,3.38133333 32.9586667,3.14933333 33.02,2.92 C33.0813333,2.69066667 33.1786667,2.48266667 33.312,2.296 C33.4453333,2.10933333 33.62,1.96 33.836,1.848 C34.052,1.736 34.3146667,1.68 34.624,1.68 C34.9546667,1.68 35.228,1.74133333 35.444,1.864 C35.66,1.98666667 35.8346667,2.136 35.968,2.312 L35.968,0.416 C35.968,0.362666667 35.984,0.32 36.016,0.288 C36.048,0.256 36.0906667,0.24 36.144,0.24 L36.28,0.24 C36.3333333,0.24 36.376,0.256 36.408,0.288 C36.44,0.32 36.456,0.362666667 36.456,0.416 L36.456,5.744 C36.456,5.79733333 36.44,5.84 36.408,5.872 C36.376,5.904 36.3333333,5.92 36.28,5.92 L36.144,5.92 C36.0906667,5.92 36.048,5.904 36.016,5.872 C35.984,5.84 35.968,5.79733333 35.968,5.744 L35.968,5.368 C35.8346667,5.54933333 35.66,5.7 35.444,5.82 C35.228,5.94 34.9546667,6 34.624,6 Z M34.672,5.536 C34.976,5.536 35.2213333,5.464 35.408,5.32 C35.5946667,5.176 35.7333333,4.996 35.824,4.78 C35.9146667,4.564 35.9626667,4.34666667 35.968,4.128 C35.9733333,4.048 35.976,3.944 35.976,3.816 C35.976,3.688 35.9733333,3.584 35.968,3.504 C35.9626667,3.29066667 35.9133333,3.08 35.82,2.872 C35.7266667,2.664 35.5866667,2.49066667 35.4,2.352 C35.2133333,2.21333333 34.9706667,2.144 34.672,2.144 C34.3626667,2.144 34.116,2.21333333 33.932,2.352 C33.748,2.49066667 33.616,2.672 33.536,2.896 C33.456,3.12 33.4106667,3.36 33.4,3.616 C33.3946667,3.76533333 33.3946667,3.91466667 33.4,4.064 C33.4106667,4.32 33.456,4.56 33.536,4.784 C33.616,5.008 33.748,5.18933333 33.932,5.328 C34.116,5.46666667 34.3626667,5.536 34.672,5.536 Z" id="Shape"></path>
                <path d="M38.04,5.92 C37.9866667,5.92 37.944,5.904 37.912,5.872 C37.88,5.84 37.864,5.79733333 37.864,5.744 L37.864,0.504 C37.864,0.445333333 37.88,0.4 37.912,0.368 C37.944,0.336 37.9866667,0.32 38.04,0.32 L39.984,0.32 C40.3573333,0.32 40.6813333,0.382666667 40.956,0.508 C41.2306667,0.633333333 41.444,0.818666667 41.596,1.064 C41.748,1.30933333 41.824,1.61333333 41.824,1.976 C41.824,2.33866667 41.748,2.64266667 41.596,2.888 C41.444,3.13333333 41.2306667,3.31866667 40.956,3.444 C40.6813333,3.56933333 40.3573333,3.632 39.984,3.632 L38.368,3.632 L38.368,5.744 C38.368,5.79733333 38.352,5.84 38.32,5.872 C38.288,5.904 38.2426667,5.92 38.184,5.92 L38.04,5.92 Z M38.368,3.152 L39.944,3.152 C40.408,3.152 40.7533333,3.05066667 40.98,2.848 C41.2066667,2.64533333 41.32,2.35466667 41.32,1.976 C41.32,1.59733333 41.2066667,1.30666667 40.98,1.104 C40.7533333,0.901333333 40.408,0.8 39.944,0.8 L38.368,0.8 L38.368,3.152 Z" id="Shape"></path>
                <path d="M42.96,5.92 C42.9066667,5.92 42.864,5.904 42.832,5.872 C42.8,5.84 42.784,5.79733333 42.784,5.744 L42.784,1.944 C42.784,1.89066667 42.8,1.84666667 42.832,1.812 C42.864,1.77733333 42.9066667,1.76 42.96,1.76 L43.088,1.76 C43.1413333,1.76 43.1853333,1.77733333 43.22,1.812 C43.2546667,1.84666667 43.272,1.89066667 43.272,1.944 L43.272,2.312 C43.368,2.12533333 43.5066667,1.98666667 43.688,1.896 C43.8693333,1.80533333 44.0933333,1.76 44.36,1.76 L44.656,1.76 C44.7093333,1.76 44.752,1.776 44.784,1.808 C44.816,1.84 44.832,1.88266667 44.832,1.936 L44.832,2.048 C44.832,2.10133333 44.816,2.144 44.784,2.176 C44.752,2.208 44.7093333,2.224 44.656,2.224 L44.312,2.224 C43.992,2.224 43.7386667,2.31733333 43.552,2.504 C43.3653333,2.69066667 43.272,2.944 43.272,3.264 L43.272,5.744 C43.272,5.79733333 43.2546667,5.84 43.22,5.872 C43.1853333,5.904 43.1413333,5.92 43.088,5.92 L42.96,5.92 Z"></path>
                <path d="M47.016,6 C46.4986667,6 46.088,5.83066667 45.784,5.492 C45.48,5.15333333 45.3066667,4.70933333 45.264,4.16 C45.2586667,4.08 45.256,3.97333333 45.256,3.84 C45.256,3.70666667 45.2586667,3.6 45.264,3.52 C45.2906667,3.15733333 45.376,2.83733333 45.52,2.56 C45.664,2.28266667 45.8626667,2.06666667 46.116,1.912 C46.3693333,1.75733333 46.6693333,1.68 47.016,1.68 C47.3893333,1.68 47.7066667,1.76266667 47.968,1.928 C48.2293333,2.09333333 48.4306667,2.33066667 48.572,2.64 C48.7133333,2.94933333 48.784,3.31733333 48.784,3.744 L48.784,3.864 C48.784,3.91733333 48.7666667,3.96 48.732,3.992 C48.6973333,4.024 48.6533333,4.04 48.6,4.04 L45.752,4.04 C45.752,4.04 45.752,4.05066667 45.752,4.072 C45.752,4.09333333 45.752,4.10933333 45.752,4.12 C45.7626667,4.36 45.8186667,4.588 45.92,4.804 C46.0213333,5.02 46.1653333,5.196 46.352,5.332 C46.5386667,5.468 46.76,5.536 47.016,5.536 C47.2453333,5.536 47.436,5.50133333 47.588,5.432 C47.74,5.36266667 47.8613333,5.28666667 47.952,5.204 C48.0426667,5.12133333 48.1013333,5.05866667 48.128,5.016 C48.176,4.94666667 48.2133333,4.90533333 48.24,4.892 C48.2666667,4.87866667 48.3093333,4.872 48.368,4.872 L48.496,4.872 C48.544,4.872 48.5853333,4.88666667 48.62,4.916 C48.6546667,4.94533333 48.6693333,4.984 48.664,5.032 C48.6586667,5.10666667 48.6173333,5.19866667 48.54,5.308 C48.4626667,5.41733333 48.3533333,5.52533333 48.212,5.632 C48.0706667,5.73866667 47.8986667,5.82666667 47.696,5.896 C47.4933333,5.96533333 47.2666667,6 47.016,6 Z M45.752,3.592 L48.296,3.592 L48.296,3.56 C48.296,3.29333333 48.2453333,3.05333333 48.144,2.84 C48.0426667,2.62666667 47.896,2.45733333 47.704,2.332 C47.512,2.20666667 47.2826667,2.144 47.016,2.144 C46.7493333,2.144 46.5213333,2.20666667 46.332,2.332 C46.1426667,2.45733333 45.9986667,2.62666667 45.9,2.84 C45.8013333,3.05333333 45.752,3.29333333 45.752,3.56 L45.752,3.592 Z" id="Shape"></path>
                <path d="M51.16,6 C50.8826667,6 50.644,5.96266667 50.444,5.888 C50.244,5.81333333 50.08,5.724 49.952,5.62 C49.824,5.516 49.7293333,5.41333333 49.668,5.312 C49.6066667,5.21066667 49.5733333,5.13333333 49.568,5.08 C49.5626667,5.02133333 49.5813333,4.97733333 49.624,4.948 C49.6666667,4.91866667 49.7066667,4.904 49.744,4.904 L49.864,4.904 C49.896,4.904 49.924,4.90933333 49.948,4.92 C49.972,4.93066667 50.0026667,4.96 50.04,5.008 C50.1093333,5.09866667 50.1893333,5.18533333 50.28,5.268 C50.3706667,5.35066667 50.4866667,5.416 50.628,5.464 C50.7693333,5.512 50.9466667,5.536 51.16,5.536 C51.48,5.536 51.744,5.47466667 51.952,5.352 C52.16,5.22933333 52.264,5.048 52.264,4.808 C52.264,4.65866667 52.2226667,4.53866667 52.14,4.448 C52.0573333,4.35733333 51.9173333,4.27733333 51.72,4.208 C51.5226667,4.13866667 51.256,4.06666667 50.92,3.992 C50.584,3.912 50.3266667,3.816 50.148,3.704 C49.9693333,3.592 49.848,3.46266667 49.784,3.316 C49.72,3.16933333 49.688,3.01066667 49.688,2.84 C49.688,2.65333333 49.7413333,2.47066667 49.848,2.292 C49.9546667,2.11333333 50.1133333,1.96666667 50.324,1.852 C50.5346667,1.73733333 50.8,1.68 51.12,1.68 C51.3813333,1.68 51.604,1.71466667 51.788,1.784 C51.972,1.85333333 52.1226667,1.93733333 52.24,2.036 C52.3573333,2.13466667 52.444,2.232 52.5,2.328 C52.556,2.424 52.5866667,2.50133333 52.592,2.56 C52.5973333,2.61333333 52.5813333,2.656 52.544,2.688 C52.5066667,2.72 52.464,2.736 52.416,2.736 L52.296,2.736 C52.2533333,2.736 52.2186667,2.72666667 52.192,2.708 C52.1653333,2.68933333 52.1413333,2.664 52.12,2.632 C52.0666667,2.54666667 52.0026667,2.46666667 51.928,2.392 C51.8533333,2.31733333 51.7533333,2.25733333 51.628,2.212 C51.5026667,2.16666667 51.3333333,2.144 51.12,2.144 C50.8,2.144 50.5626667,2.20933333 50.408,2.34 C50.2533333,2.47066667 50.176,2.63733333 50.176,2.84 C50.176,2.95733333 50.208,3.06 50.272,3.148 C50.336,3.236 50.456,3.316 50.632,3.388 C50.808,3.46 51.064,3.536 51.4,3.616 C51.7413333,3.69066667 52.0106667,3.78266667 52.208,3.892 C52.4053333,4.00133333 52.5453333,4.13066667 52.628,4.28 C52.7106667,4.42933333 52.752,4.60533333 52.752,4.808 C52.752,5.02133333 52.692,5.21866667 52.572,5.4 C52.452,5.58133333 52.2733333,5.72666667 52.036,5.836 C51.7986667,5.94533333 51.5066667,6 51.16,6 Z"></path>
                <path d="M55.096,6 C54.8186667,6 54.58,5.96266667 54.38,5.888 C54.18,5.81333333 54.016,5.724 53.888,5.62 C53.76,5.516 53.6653333,5.41333333 53.604,5.312 C53.5426667,5.21066667 53.5093333,5.13333333 53.504,5.08 C53.4986667,5.02133333 53.5173333,4.97733333 53.56,4.948 C53.6026667,4.91866667 53.6426667,4.904 53.68,4.904 L53.8,4.904 C53.832,4.904 53.86,4.90933333 53.884,4.92 C53.908,4.93066667 53.9386667,4.96 53.976,5.008 C54.0453333,5.09866667 54.1253333,5.18533333 54.216,5.268 C54.3066667,5.35066667 54.4226667,5.416 54.564,5.464 C54.7053333,5.512 54.8826667,5.536 55.096,5.536 C55.416,5.536 55.68,5.47466667 55.888,5.352 C56.096,5.22933333 56.2,5.048 56.2,4.808 C56.2,4.65866667 56.1586667,4.53866667 56.076,4.448 C55.9933333,4.35733333 55.8533333,4.27733333 55.656,4.208 C55.4586667,4.13866667 55.192,4.06666667 54.856,3.992 C54.52,3.912 54.2626667,3.816 54.084,3.704 C53.9053333,3.592 53.784,3.46266667 53.72,3.316 C53.656,3.16933333 53.624,3.01066667 53.624,2.84 C53.624,2.65333333 53.6773333,2.47066667 53.784,2.292 C53.8906667,2.11333333 54.0493333,1.96666667 54.26,1.852 C54.4706667,1.73733333 54.736,1.68 55.056,1.68 C55.3173333,1.68 55.54,1.71466667 55.724,1.784 C55.908,1.85333333 56.0586667,1.93733333 56.176,2.036 C56.2933333,2.13466667 56.38,2.232 56.436,2.328 C56.492,2.424 56.5226667,2.50133333 56.528,2.56 C56.5333333,2.61333333 56.5173333,2.656 56.48,2.688 C56.4426667,2.72 56.4,2.736 56.352,2.736 L56.232,2.736 C56.1893333,2.736 56.1546667,2.72666667 56.128,2.708 C56.1013333,2.68933333 56.0773333,2.664 56.056,2.632 C56.0026667,2.54666667 55.9386667,2.46666667 55.864,2.392 C55.7893333,2.31733333 55.6893333,2.25733333 55.564,2.212 C55.4386667,2.16666667 55.2693333,2.144 55.056,2.144 C54.736,2.144 54.4986667,2.20933333 54.344,2.34 C54.1893333,2.47066667 54.112,2.63733333 54.112,2.84 C54.112,2.95733333 54.144,3.06 54.208,3.148 C54.272,3.236 54.392,3.316 54.568,3.388 C54.744,3.46 55,3.536 55.336,3.616 C55.6773333,3.69066667 55.9466667,3.78266667 56.144,3.892 C56.3413333,4.00133333 56.4813333,4.13066667 56.564,4.28 C56.6466667,4.42933333 56.688,4.60533333 56.688,4.808 C56.688,5.02133333 56.628,5.21866667 56.508,5.4 C56.388,5.58133333 56.2093333,5.72666667 55.972,5.836 C55.7346667,5.94533333 55.4426667,6 55.096,6 Z"></path>
                <path d="M57.824,5.92 C57.7706667,5.92 57.728,5.904 57.696,5.872 C57.664,5.84 57.648,5.79733333 57.648,5.744 L57.648,5.36 C57.648,5.30666667 57.664,5.26266667 57.696,5.228 C57.728,5.19333333 57.7706667,5.176 57.824,5.176 L58.208,5.176 C58.2613333,5.176 58.3053333,5.19333333 58.34,5.228 C58.3746667,5.26266667 58.392,5.30666667 58.392,5.36 L58.392,5.744 C58.392,5.79733333 58.3746667,5.84 58.34,5.872 C58.3053333,5.904 58.2613333,5.92 58.208,5.92 L57.824,5.92 Z"></path>
            </g>
            <g id="Zero-Spam">
                <path d="M0.288,8.52 C0.208,8.52 0.14,8.492 0.084,8.436 C0.028,8.38 5.68434189e-14,8.308 5.68434189e-14,8.22 L5.68434189e-14,7.38 C5.68434189e-14,7.26 0.024,7.164 0.072,7.092 C0.12,7.02 0.156,6.968 0.18,6.936 L4.356,1.536 L0.408,1.536 C0.32,1.536 0.25,1.508 0.198,1.452 C0.146,1.396 0.12,1.328 0.12,1.248 L0.12,0.42 C0.12,0.332 0.146,0.26 0.198,0.204 C0.25,0.148 0.32,0.12 0.408,0.12 L6.144,0.12 C6.232,0.12 6.304,0.148 6.36,0.204 C6.416,0.26 6.444,0.332 6.444,0.42 L6.444,1.248 C6.444,1.344 6.428,1.424 6.396,1.488 C6.364,1.552 6.328,1.612 6.288,1.668 L2.196,7.092 L6.276,7.092 C6.364,7.092 6.436,7.12 6.492,7.176 C6.548,7.232 6.576,7.304 6.576,7.392 L6.576,8.232 C6.576,8.312 6.548,8.38 6.492,8.436 C6.436,8.492 6.364,8.52 6.276,8.52 L0.288,8.52 Z"></path>
                <path d="M10.38,8.64 C9.492,8.64 8.788,8.384 8.268,7.872 C7.748,7.36 7.468,6.632 7.428,5.688 C7.42,5.608 7.416,5.506 7.416,5.382 C7.416,5.258 7.42,5.16 7.428,5.088 C7.46,4.48 7.598,3.958 7.842,3.522 C8.086,3.086 8.424,2.75 8.856,2.514 C9.288,2.278 9.796,2.16 10.38,2.16 C11.028,2.16 11.572,2.294 12.012,2.562 C12.452,2.83 12.784,3.202 13.008,3.678 C13.232,4.154 13.344,4.704 13.344,5.328 L13.344,5.58 C13.344,5.66 13.316,5.728 13.26,5.784 C13.204,5.84 13.132,5.868 13.044,5.868 L9.06,5.868 C9.06,5.868 9.06,5.88 9.06,5.904 C9.06,5.928 9.06,5.948 9.06,5.964 C9.068,6.244 9.122,6.502 9.222,6.738 C9.322,6.974 9.47,7.164 9.666,7.308 C9.862,7.452 10.096,7.524 10.368,7.524 C10.592,7.524 10.78,7.49 10.932,7.422 C11.084,7.354 11.208,7.276 11.304,7.188 C11.4,7.1 11.468,7.028 11.508,6.972 C11.58,6.876 11.638,6.818 11.682,6.798 C11.726,6.778 11.792,6.768 11.88,6.768 L12.912,6.768 C12.992,6.768 13.058,6.792 13.11,6.84 C13.162,6.888 13.184,6.948 13.176,7.02 C13.168,7.148 13.102,7.304 12.978,7.488 C12.854,7.672 12.676,7.852 12.444,8.028 C12.212,8.204 11.922,8.35 11.574,8.466 C11.226,8.582 10.828,8.64 10.38,8.64 Z M9.06,4.86 L11.712,4.86 L11.712,4.824 C11.712,4.512 11.66,4.238 11.556,4.002 C11.452,3.766 11.3,3.582 11.1,3.45 C10.9,3.318 10.66,3.252 10.38,3.252 C10.1,3.252 9.86,3.318 9.66,3.45 C9.46,3.582 9.31,3.766 9.21,4.002 C9.11,4.238 9.06,4.512 9.06,4.824 L9.06,4.86 Z" id="Shape"></path>
                <path d="M14.904,8.52 C14.824,8.52 14.756,8.492 14.7,8.436 C14.644,8.38 14.616,8.312 14.616,8.232 L14.616,2.58 C14.616,2.492 14.644,2.42 14.7,2.364 C14.756,2.308 14.824,2.28 14.904,2.28 L15.876,2.28 C15.956,2.28 16.026,2.308 16.086,2.364 C16.146,2.42 16.176,2.492 16.176,2.58 L16.176,3.072 C16.36,2.816 16.598,2.62 16.89,2.484 C17.182,2.348 17.52,2.28 17.904,2.28 L18.396,2.28 C18.484,2.28 18.554,2.308 18.606,2.364 C18.658,2.42 18.684,2.488 18.684,2.568 L18.684,3.432 C18.684,3.512 18.658,3.58 18.606,3.636 C18.554,3.692 18.484,3.72 18.396,3.72 L17.46,3.72 C17.076,3.72 16.778,3.826 16.566,4.038 C16.354,4.25 16.248,4.548 16.248,4.932 L16.248,8.232 C16.248,8.312 16.22,8.38 16.164,8.436 C16.108,8.492 16.036,8.52 15.948,8.52 L14.904,8.52 Z"></path>
                <path d="M22.296,8.64 C21.656,8.64 21.118,8.528 20.682,8.304 C20.246,8.08 19.914,7.764 19.686,7.356 C19.458,6.948 19.328,6.472 19.296,5.928 C19.288,5.784 19.284,5.608 19.284,5.4 C19.284,5.192 19.288,5.016 19.296,4.872 C19.328,4.32 19.462,3.842 19.698,3.438 C19.934,3.034 20.27,2.72 20.706,2.496 C21.142,2.272 21.672,2.16 22.296,2.16 C22.92,2.16 23.45,2.272 23.886,2.496 C24.322,2.72 24.658,3.034 24.894,3.438 C25.13,3.842 25.264,4.32 25.296,4.872 C25.304,5.016 25.308,5.192 25.308,5.4 C25.308,5.608 25.304,5.784 25.296,5.928 C25.264,6.472 25.134,6.948 24.906,7.356 C24.678,7.764 24.346,8.08 23.91,8.304 C23.474,8.528 22.936,8.64 22.296,8.64 Z M22.296,7.452 C22.72,7.452 23.048,7.318 23.28,7.05 C23.512,6.782 23.64,6.388 23.664,5.868 C23.672,5.748 23.676,5.592 23.676,5.4 C23.676,5.208 23.672,5.052 23.664,4.932 C23.64,4.412 23.512,4.018 23.28,3.75 C23.048,3.482 22.72,3.348 22.296,3.348 C21.872,3.348 21.544,3.482 21.312,3.75 C21.08,4.018 20.952,4.412 20.928,4.932 C20.92,5.052 20.916,5.208 20.916,5.4 C20.916,5.592 20.92,5.748 20.928,5.868 C20.952,6.388 21.08,6.782 21.312,7.05 C21.544,7.318 21.872,7.452 22.296,7.452 Z" id="Shape"></path>
                <path d="M32.448,8.64 C31.704,8.64 31.082,8.53 30.582,8.31 C30.082,8.09 29.702,7.802 29.442,7.446 C29.182,7.09 29.044,6.716 29.028,6.324 C29.028,6.252 29.052,6.192 29.1,6.144 C29.148,6.096 29.208,6.072 29.28,6.072 L30.348,6.072 C30.452,6.072 30.53,6.094 30.582,6.138 C30.634,6.182 30.68,6.236 30.72,6.3 C30.768,6.452 30.86,6.602 30.996,6.75 C31.132,6.898 31.318,7.02 31.554,7.116 C31.79,7.212 32.088,7.26 32.448,7.26 C33.024,7.26 33.454,7.164 33.738,6.972 C34.022,6.78 34.164,6.52 34.164,6.192 C34.164,5.96 34.088,5.774 33.936,5.634 C33.784,5.494 33.55,5.366 33.234,5.25 C32.918,5.134 32.5,5.012 31.98,4.884 C31.38,4.74 30.878,4.566 30.474,4.362 C30.07,4.158 29.766,3.9 29.562,3.588 C29.358,3.276 29.256,2.88 29.256,2.4 C29.256,1.936 29.382,1.524 29.634,1.164 C29.886,0.804 30.246,0.52 30.714,0.312 C31.182,0.104 31.74,1.42108547e-14 32.388,1.42108547e-14 C32.908,1.42108547e-14 33.368,0.07 33.768,0.21 C34.168,0.35 34.5,0.534 34.764,0.762 C35.028,0.99 35.23,1.234 35.37,1.494 C35.51,1.754 35.584,2.008 35.592,2.256 C35.592,2.32 35.57,2.378 35.526,2.43 C35.482,2.482 35.42,2.508 35.34,2.508 L34.224,2.508 C34.16,2.508 34.096,2.492 34.032,2.46 C33.968,2.428 33.916,2.368 33.876,2.28 C33.828,2.032 33.672,1.82 33.408,1.644 C33.144,1.468 32.804,1.38 32.388,1.38 C31.956,1.38 31.608,1.46 31.344,1.62 C31.08,1.78 30.948,2.028 30.948,2.364 C30.948,2.588 31.014,2.774 31.146,2.922 C31.278,3.07 31.49,3.2 31.782,3.312 C32.074,3.424 32.46,3.544 32.94,3.672 C33.62,3.824 34.176,4 34.608,4.2 C35.04,4.4 35.356,4.654 35.556,4.962 C35.756,5.27 35.856,5.66 35.856,6.132 C35.856,6.66 35.714,7.11 35.43,7.482 C35.146,7.854 34.748,8.14 34.236,8.34 C33.724,8.54 33.128,8.64 32.448,8.64 Z"></path>
                <path d="M37.392,10.8 C37.312,10.8 37.244,10.772 37.188,10.716 C37.132,10.66 37.104,10.592 37.104,10.512 L37.104,2.568 C37.104,2.488 37.132,2.42 37.188,2.364 C37.244,2.308 37.312,2.28 37.392,2.28 L38.34,2.28 C38.428,2.28 38.498,2.308 38.55,2.364 C38.602,2.42 38.628,2.488 38.628,2.568 L38.628,3.048 C38.82,2.792 39.072,2.58 39.384,2.412 C39.696,2.244 40.084,2.16 40.548,2.16 C40.972,2.16 41.34,2.228 41.652,2.364 C41.964,2.5 42.224,2.694 42.432,2.946 C42.64,3.198 42.8,3.496 42.912,3.84 C43.024,4.184 43.088,4.564 43.104,4.98 C43.112,5.116 43.116,5.256 43.116,5.4 C43.116,5.544 43.112,5.688 43.104,5.832 C43.096,6.232 43.036,6.602 42.924,6.942 C42.812,7.282 42.65,7.578 42.438,7.83 C42.226,8.082 41.964,8.28 41.652,8.424 C41.34,8.568 40.972,8.64 40.548,8.64 C40.116,8.64 39.748,8.562 39.444,8.406 C39.14,8.25 38.892,8.044 38.7,7.788 L38.7,10.512 C38.7,10.592 38.674,10.66 38.622,10.716 C38.57,10.772 38.5,10.8 38.412,10.8 L37.392,10.8 Z M40.104,7.356 C40.448,7.356 40.716,7.282 40.908,7.134 C41.1,6.986 41.24,6.792 41.328,6.552 C41.416,6.312 41.468,6.048 41.484,5.76 C41.492,5.52 41.492,5.28 41.484,5.04 C41.468,4.752 41.416,4.488 41.328,4.248 C41.24,4.008 41.1,3.814 40.908,3.666 C40.716,3.518 40.448,3.444 40.104,3.444 C39.776,3.444 39.51,3.52 39.306,3.672 C39.102,3.824 38.954,4.018 38.862,4.254 C38.77,4.49 38.716,4.732 38.7,4.98 C38.692,5.124 38.688,5.276 38.688,5.436 C38.688,5.596 38.692,5.752 38.7,5.904 C38.708,6.144 38.764,6.374 38.868,6.594 C38.972,6.814 39.124,6.996 39.324,7.14 C39.524,7.284 39.784,7.356 40.104,7.356 Z" id="Shape"></path>
                <path d="M46.272,8.64 C45.856,8.64 45.48,8.558 45.144,8.394 C44.808,8.23 44.542,8.01 44.346,7.734 C44.15,7.458 44.052,7.148 44.052,6.804 C44.052,6.244 44.28,5.798 44.736,5.466 C45.192,5.134 45.788,4.912 46.524,4.8 L48.168,4.56 L48.168,4.308 C48.168,3.972 48.084,3.712 47.916,3.528 C47.748,3.344 47.46,3.252 47.052,3.252 C46.764,3.252 46.53,3.31 46.35,3.426 C46.17,3.542 46.036,3.696 45.948,3.888 C45.884,3.992 45.792,4.044 45.672,4.044 L44.724,4.044 C44.636,4.044 44.57,4.02 44.526,3.972 C44.482,3.924 44.46,3.86 44.46,3.78 C44.468,3.652 44.522,3.496 44.622,3.312 C44.722,3.128 44.874,2.95 45.078,2.778 C45.282,2.606 45.548,2.46 45.876,2.34 C46.204,2.22 46.6,2.16 47.064,2.16 C47.568,2.16 47.994,2.222 48.342,2.346 C48.69,2.47 48.968,2.636 49.176,2.844 C49.384,3.052 49.536,3.296 49.632,3.576 C49.728,3.856 49.776,4.152 49.776,4.464 L49.776,8.232 C49.776,8.312 49.748,8.38 49.692,8.436 C49.636,8.492 49.568,8.52 49.488,8.52 L48.516,8.52 C48.428,8.52 48.358,8.492 48.306,8.436 C48.254,8.38 48.228,8.312 48.228,8.232 L48.228,7.764 C48.124,7.908 47.984,8.048 47.808,8.184 C47.632,8.32 47.418,8.43 47.166,8.514 C46.914,8.598 46.616,8.64 46.272,8.64 Z M46.68,7.5 C46.96,7.5 47.214,7.44 47.442,7.32 C47.67,7.2 47.85,7.014 47.982,6.762 C48.114,6.51 48.18,6.192 48.18,5.808 L48.18,5.556 L46.98,5.748 C46.508,5.82 46.156,5.936 45.924,6.096 C45.692,6.256 45.576,6.452 45.576,6.684 C45.576,6.86 45.63,7.01 45.738,7.134 C45.846,7.258 45.984,7.35 46.152,7.41 C46.32,7.47 46.496,7.5 46.68,7.5 Z" id="Shape"></path>
                <path d="M51.6,8.52 C51.52,8.52 51.452,8.492 51.396,8.436 C51.34,8.38 51.312,8.312 51.312,8.232 L51.312,2.568 C51.312,2.488 51.34,2.42 51.396,2.364 C51.452,2.308 51.52,2.28 51.6,2.28 L52.536,2.28 C52.616,2.28 52.684,2.308 52.74,2.364 C52.796,2.42 52.824,2.488 52.824,2.568 L52.824,2.976 C52.992,2.752 53.218,2.562 53.502,2.406 C53.786,2.25 54.124,2.168 54.516,2.16 C55.428,2.144 56.064,2.5 56.424,3.228 C56.608,2.908 56.874,2.65 57.222,2.454 C57.57,2.258 57.956,2.16 58.38,2.16 C58.796,2.16 59.174,2.256 59.514,2.448 C59.854,2.64 60.122,2.93 60.318,3.318 C60.514,3.706 60.612,4.196 60.612,4.788 L60.612,8.232 C60.612,8.312 60.584,8.38 60.528,8.436 C60.472,8.492 60.404,8.52 60.324,8.52 L59.34,8.52 C59.26,8.52 59.192,8.492 59.136,8.436 C59.08,8.38 59.052,8.312 59.052,8.232 L59.052,4.884 C59.052,4.524 59,4.238 58.896,4.026 C58.792,3.814 58.652,3.664 58.476,3.576 C58.3,3.488 58.104,3.444 57.888,3.444 C57.712,3.444 57.536,3.488 57.36,3.576 C57.184,3.664 57.04,3.814 56.928,4.026 C56.816,4.238 56.76,4.524 56.76,4.884 L56.76,8.232 C56.76,8.312 56.732,8.38 56.676,8.436 C56.62,8.492 56.552,8.52 56.472,8.52 L55.488,8.52 C55.408,8.52 55.34,8.492 55.284,8.436 C55.228,8.38 55.2,8.312 55.2,8.232 L55.2,4.884 C55.2,4.524 55.144,4.238 55.032,4.026 C54.92,3.814 54.776,3.664 54.6,3.576 C54.424,3.488 54.236,3.444 54.036,3.444 C53.852,3.444 53.672,3.49 53.496,3.582 C53.32,3.674 53.176,3.824 53.064,4.032 C52.952,4.24 52.896,4.524 52.896,4.884 L52.896,8.232 C52.896,8.312 52.868,8.38 52.812,8.436 C52.756,8.492 52.688,8.52 52.608,8.52 L51.6,8.52 Z"></path>
            </g>
        </g>
    </g>
</svg>
