<?xml version="1.0" encoding="UTF-8"?>
<svg width="113px" height="113px" viewBox="0 0 113 113" version="1.1" xmlns="http://www.w3.org/2000/svg" xmlns:xlink="http://www.w3.org/1999/xlink">
    <title>Fluent Form with Light Background</title>
    <defs>
        <linearGradient x1="25.470009%" y1="25.4700976%" x2="94.8491805%" y2="94.8491805%" id="linearGradient-1">
            <stop stop-color="#05CDFF" offset="0%"></stop>
            <stop stop-color="#0976FF" offset="100%"></stop>
        </linearGradient>
    </defs>
    <g id="Page-1" stroke="none" stroke-width="1" fill="none" fill-rule="evenodd">
        <g id="Fluent-Form-with-Light-Background" fill-rule="nonzero">
            <path d="M112.817,23.1555 L112.817,89.6617 C112.817,102.452 102.056,112.817 88.7736,112.817 L24.0437,112.817 C10.7681,112.817 0,102.452 0,89.6617 L0,23.1555 C0,10.3686 10.7681,0 24.0437,0 L88.7736,0 C102.053,0 112.817,10.3686 112.817,23.1555 Z" id="Path" fill="url(#linearGradient-1)"></path>
            <path d="M91.1419,48.0698 L36.1029,48.0698 C27.5141,48.0698 20.5482,55.0322 20.5482,63.6246 C20.5482,64.2452 21.0511,64.7481 21.6718,64.7481 L76.7143,64.7481 C85.3031,64.7481 92.2691,57.7857 92.2691,49.1934 C92.2655,48.5727 91.7626,48.0698 91.1419,48.0698 Z" id="Path" fill="#FFFFFF"></path>
            <path d="M80.9444,72.7019 L46.6533,72.7019 C37.9647,72.7019 30.9238,79.7427 30.9238,88.4314 C30.9238,88.9557 31.3483,89.3766 31.869,89.3766 L66.1565,89.3766 C74.8452,89.3766 81.8860227,82.3358 81.8860227,73.6471 C81.8896,73.1263 81.4651,72.7019 80.9444,72.7019 Z" id="Path" fill="#FFFFFF"></path>
            <path d="M91.1419,23.4375 L36.1029,23.4375 C27.5141,23.4375 20.5482,30.3999 20.5482,38.9922 C20.5482,39.6128 21.0511,40.1158 21.6718,40.1158 L76.7143,40.1158 C85.3031,40.1158 92.2691,33.1534 92.2691,24.561 C92.2655,23.9404 91.7626,23.4375 91.1419,23.4375 Z" id="Path" fill="#FFFFFF"></path>
        </g>
    </g>
</svg>