<?xml version="1.0" encoding="UTF-8"?><svg version="1.1" width="342px" height="342px" viewBox="0 0 342.0 342.0" xmlns="http://www.w3.org/2000/svg" xmlns:xlink="http://www.w3.org/1999/xlink"><defs><clipPath id="i0"><path d="M48,0 C74.5,0 96,21.5 96,48 L96,294 C96,320.235 74.92785,341.5695 48.7934835,341.993567 L48,342 C21.5,342 0,320.5 0,294 L0,48 C0,21.765 21.07215,0.4305 47.2065165,0.0064335 L48,0 Z"></path></clipPath><linearGradient id="i1" x1="45.0696px" y1="326.3085px" x2="48.0562px" y2="168.0193px" gradientUnits="userSpaceOnUse"><stop stop-color="#2893FF" offset="0%"></stop><stop stop-color="#0033BF" offset="100%"></stop></linearGradient><clipPath id="i2"><path d="M48,0 C74.5,0 96.0003474,21.5 96.0003474,48 L96.0003474,173 C96.0990035,199.235 75.02784,220.5695 48.7964535,220.993566 L48,221 C21.5,221 0,199.5 0,173 L0,48 C0,21.765 21.07215,0.4305 47.2065165,0.0064335 L48,0 Z"></path></clipPath><linearGradient id="i3" x1="48.0002px" y1="-118.6891px" x2="48.0002px" y2="212.1005px" gradientUnits="userSpaceOnUse"><stop stop-color="#45A2FF" offset="0%"></stop><stop stop-color="#2660FF" offset="100%"></stop></linearGradient><linearGradient id="i4" x1="48px" y1="2.3109px" x2="48px" y2="333.1005px" gradientUnits="userSpaceOnUse"><stop stop-color="#45A2FF" offset="0%"></stop><stop stop-color="#2660FF" offset="100%"></stop></linearGradient><clipPath id="i5"><path d="M48,0 C74.5,0 96,21.5 96,48 L96,123 C96,149.235 74.92785,170.5695 48.7934835,170.993566 L48,171 C21.5,171 0,149.5 0,123 L0,48 C0,21.765 21.07215,0.4305 47.2065165,0.0064335 L48,0 Z"></path></clipPath><clipPath id="i6"><path d="M47.7,0 C74.0439826,0 95.4,21.3560174 95.4,47.7 C95.4,74.0439826 74.0439826,95.4 47.7,95.4 C21.3560174,95.4 0,74.0439826 0,47.7 C0,21.3560174 21.3560174,0 47.7,0 Z"></path></clipPath><linearGradient id="i7" x1="47.7px" y1="5.5699px" x2="47.7px" y2="124.5238px" gradientUnits="userSpaceOnUse"><stop stop-color="#45A2FF" offset="0%"></stop><stop stop-color="#2660FF" offset="100%"></stop></linearGradient></defs><g transform="translate(246.0 0.0)"><g clip-path="url(#i0)"><polygon points="0,0 96,0 96,342 0,342 0,0" stroke="none" fill="url(#i1)"></polygon></g></g><g transform="translate(0.0 121.0)"><g clip-path="url(#i2)"><polygon points="0,0 96.0006924,0 96.0006924,221 0,221 0,0" stroke="none" fill="url(#i3)"></polygon></g></g><g transform="translate(123.0 0.0)"><g clip-path="url(#i0)"><polygon points="0,0 96,0 96,342 0,342 0,0" stroke="none" fill="url(#i4)"></polygon></g></g><g transform="translate(246.0 0.0)"><g clip-path="url(#i5)"><polygon points="0,0 96,0 96,171 0,171 0,0" stroke="none" fill="url(#i4)"></polygon></g></g><g transform="translate(0.29999999999999716 0.0)"><g clip-path="url(#i6)"><polygon points="0,0 95.4,0 95.4,95.4 0,95.4 0,0" stroke="none" fill="url(#i7)"></polygon></g></g></svg>